<svg xmlns="http://www.w3.org/2000/svg" xml:space="preserve" width="800" height="800" viewBox="0 0 512 512"><path d="M512 378.435v89.043C512 492.066 492.066 512 467.478 512H44.522C19.933 512 0 492.066 0 467.478v-89.043z" style="fill:#777"/><path d="M475.826 467.478a8.35 8.35 0 0 1-8.348 8.348h-244.87a8.349 8.349 0 0 1 0-16.696h244.87a8.35 8.35 0 0 1 8.348 8.348m-295.513-8.348H179.2a8.349 8.349 0 0 0 0 16.696h1.113a8.349 8.349 0 0 0 0-16.696m-57.878 0h-1.113a8.349 8.349 0 0 0 0 16.696h1.113a8.349 8.349 0 0 0 0-16.696" style="fill:#4c4c4c"/><path d="M512 378.435c0 24.588-19.933 44.522-44.522 44.522H44.522C19.933 422.957 0 403.023 0 378.435s19.933-44.522 44.522-44.522h422.957c24.587 0 44.521 19.934 44.521 44.522" style="fill:#dbd8d2"/><path d="M111.304 389.565H56.002c-4.571 0-8.557-3.522-8.694-8.091a8.35 8.35 0 0 1 8.344-8.605h66.783v5.565c0 6.148-4.983 11.131-11.131 11.131m344.694-16.695h-66.433v5.565c0 6.147 4.983 11.13 11.13 11.13h55.652a8.35 8.35 0 0 0 8.344-8.605c-.137-4.569-4.123-8.09-8.693-8.09" style="fill:#a5a5a5"/><path d="M400.696 211.478v178.087h-89.043c-12.295 0-22.261-9.966-22.261-22.261V211.478c0-12.295 9.966-22.261 22.261-22.261h66.783c12.293 0 22.26 9.967 22.26 22.261" style="fill:#fc8059"/><path d="M333.913 233.739v155.826h-22.261c-12.295 0-22.261-9.966-22.261-22.261V211.478h22.261c12.295 0 22.261 9.966 22.261 22.261" style="fill:#bf5243"/><path d="M311.652 22.261v367.304H244.87c-24.588 0-44.522-19.933-44.522-44.522V22.261C200.348 9.966 210.314 0 222.609 0h66.783c12.294 0 22.26 9.966 22.26 22.261" style="fill:#a3ccaa"/><path d="M244.87 144.696v244.87h-22.261c-12.295 0-22.261-9.966-22.261-22.261v-244.87h22.261c12.294 0 22.261 9.966 22.261 22.261" style="fill:#80a886"/><path d="M222.609 122.435v267.13H111.304v-267.13c0-12.295 9.966-22.261 22.261-22.261h66.783c12.295 0 22.261 9.966 22.261 22.261" style="fill:#fed766"/></svg>