<svg xmlns="http://www.w3.org/2000/svg" xml:space="preserve" width="800" height="800" viewBox="0 0 493.623 493.623"><path d="M246.812 88.615c-24.434 0-44.308-19.873-44.308-44.308S222.377 0 246.812 0s44.308 19.873 44.308 44.308-19.874 44.307-44.308 44.307m0-72.861c-15.746 0-28.554 12.808-28.554 28.554s12.808 28.554 28.554 28.554c15.738 0 28.554-12.808 28.554-28.554s-12.816-28.554-28.554-28.554" style="fill:#acc1c1"/><path d="M246.812 14.438c-21.969 0-40.204 16.085-43.662 37.085 3.458 21 21.693 37.085 43.662 37.085s40.204-16.085 43.662-37.085c-3.459-21-21.694-37.085-43.662-37.085m28.553 44.308c0 15.746-12.816 28.554-28.554 28.554-15.746 0-28.554-12.808-28.554-28.554 0-2.505.433-4.899 1.032-7.223-.599-2.324-1.032-4.718-1.032-7.223 0-15.746 12.808-28.554 28.554-28.554 15.738 0 28.554 12.808 28.554 28.554 0 2.505-.433 4.899-1.04 7.223.607 2.324 1.04 4.718 1.04 7.223" style="fill:#8da09f"/><path d="M411.628 472.277c0 11.792-9.555 21.346-21.339 21.346H103.333c-11.8 0-21.339-9.555-21.339-21.346V73.862c0-11.792 9.539-21.346 21.339-21.346H390.29c11.784 0 21.339 9.555 21.339 21.346v398.415z" style="fill:#3babff"/><path d="M81.995 73.854c0-11.792 9.539-21.346 21.339-21.346H390.29c11.784 0 21.339 9.555 21.339 21.346v398.415c0 11.792-9.555 21.346-21.339 21.346" style="fill:#075cd8"/><path d="M361.287 99.123H132.352c-9.72 0-17.613 7.885-17.613 17.613v234.598L227.875 460.13h133.419c9.72 0 17.597-7.885 17.597-17.605V116.744c.001-9.736-7.876-17.621-17.604-17.621" style="fill:#0ee0b8"/><path d="M361.287 127.677H132.352c-9.72 0-17.613 7.885-17.613 17.613v234.59l113.136 108.796h133.419c9.72 0 17.597-7.885 17.597-17.605V145.298c.001-9.736-7.876-17.621-17.604-17.621" style="fill:#075cd8"/><path d="M361.287 99.123H132.352c-9.72 0-17.613 7.885-17.613 17.613v234.598L227.875 460.13h133.419c9.72 0 17.597-7.885 17.597-17.605V116.744c.001-9.736-7.876-17.621-17.604-17.621" style="fill:#ffd400"/><path d="M378.892 380.471V116.744c0-9.728-7.877-17.613-17.597-17.613H132.352c-9.72 0-17.613 7.885-17.613 17.613" style="fill:#ffc200"/><path d="M378.892 380.471V116.744c0-9.728-7.877-17.613-17.597-17.613H216.966" style="fill:#ffb000"/><path d="M213.595 355.304v87.82c0 1.26.165 2.481.417 3.679l13.54 13.021c1 .173 2.001.299 3.048.299h92.121l-109-104.819z" style="fill:#ffc200"/><path d="M213.595 355.304v87.82c0 1.26.165 2.481.417 3.679l13.54 13.021c1 .173 2.001.299 3.048.299h47.002l-52.61-87.899z" style="fill:#ffb000"/><path d="M227.875 460.13h.142v-90.97c0-9.72-7.893-17.605-17.613-17.605h-95.453z" style="fill:#acc1c1"/><path d="M114.952 351.547 227.875 460.13h.134v-90.97" style="fill:#93a4a5"/><path d="m122.703 351.547-.213-.213v-234.59c0-9.728 7.877-17.613 17.613-17.613h-7.751c-9.72 0-17.613 7.885-17.613 17.613v234.591l.213.213h7.751z" style="fill:#f9e385"/><path d="M337.625 169.756c0 2.473-2.276 4.482-5.081 4.482H161.087c-2.796 0-5.081-2.009-5.081-4.482 0-2.481 2.276-4.482 5.081-4.482h171.465c2.796 0 5.073 2 5.073 4.482m0 34.753c0 2.473-2.276 4.49-5.081 4.49H161.087c-2.796 0-5.081-2.016-5.081-4.49 0-2.465 2.276-4.482 5.081-4.482h171.465c2.796 0 5.073 2.016 5.073 4.482m0 34.76c0 2.473-2.276 4.482-5.081 4.482H161.087c-2.796 0-5.081-2.009-5.081-4.482s2.276-4.482 5.081-4.482h171.465c2.796 0 5.073 2.009 5.073 4.482m0 34.761c0 2.473-2.276 4.49-5.081 4.49H161.087c-2.796 0-5.081-2.017-5.081-4.49s2.276-4.49 5.081-4.49h171.465c2.796-.007 5.073 2.009 5.073 4.49m0 34.753c0 2.481-2.276 4.49-5.081 4.49H161.087c-2.796 0-5.081-2.009-5.081-4.49 0-2.465 2.276-4.474 5.081-4.474h171.465c2.796-.008 5.073 2.001 5.073 4.474" style="fill:#ffd400"/><path d="M343.383 107.04c0 5.411-4.387 9.791-9.783 9.791H160.024c-5.404 0-9.783-4.387-9.783-9.791V55.895c0-5.411 4.387-9.791 9.783-9.791h173.568c5.404 0 9.783 4.387 9.783 9.791v51.145z" style="fill:#acc1c1"/><path d="M333.6 46.104H160.024c-5.404 0-9.783 4.387-9.783 9.791v24.891c0 5.411 4.387 9.791 9.783 9.791h173.568c5.404 0 9.783-4.387 9.783-9.791V55.895c.008-5.404-4.38-9.791-9.775-9.791" style="fill:#c5d8d7"/><path d="M160.024 46.104c-3.308 0-6.089 1.757-7.861 4.269 1.772 2.513 4.553 4.269 7.861 4.269h173.568c3.308 0 6.089-1.757 7.861-4.269-1.772-2.513-4.553-4.269-7.861-4.269z" style="fill:#d1e5e3"/><circle cx="201.031" cy="72.862" r="4.427" style="fill:#acc1c1"/><circle cx="231.546" cy="72.862" r="4.427" style="fill:#acc1c1"/><circle cx="262.077" cy="72.862" r="4.427" style="fill:#acc1c1"/><circle cx="292.577" cy="72.862" r="4.427" style="fill:#acc1c1"/></svg>