<svg xmlns="http://www.w3.org/2000/svg" xml:space="preserve" width="800" height="800" viewBox="0 0 303.188 303.188"><path d="M219.821 0H32.842v303.188h237.504V50.525z" style="fill:#e4e4e4"/><path d="M227.64 25.263H32.842V0h186.979zm-55.873 74.461c-.465-1.391-1.933-2.023-3.265-1.402l-5.454 2.543a40.2 40.2 0 0 0-10.866-14.033l3.832-4.647c.934-1.133.69-2.713-.541-3.512l-14.669-7.34c-1.376-.507-2.789.242-3.136 1.671l-1.427 5.846a40.2 40.2 0 0 0-9.528-1.149c-3.059 0-6.034.353-8.896 1.004l-1.332-5.88c-.325-1.433-1.724-2.205-3.109-1.72l-14.779 7.112c-1.245.779-1.514 2.354-.599 3.503l3.757 4.712a40.2 40.2 0 0 0-11.103 13.846l-5.412-2.634c-1.32-.642-2.799-.034-3.286 1.351l-3.694 15.981c-.17 1.457.891 2.652 2.359 2.657l6.021.016c0 .044-.004.087-.004.13a39.9 39.9 0 0 0 3.87 17.192l-5.44 2.576c-1.326.629-1.778 2.162-1.002 3.409l10.159 12.877c1.03 1.045 2.627.965 3.549-.18l3.779-4.688a39.9 39.9 0 0 0 15.934 7.811l-1.394 5.863c-.339 1.429.576 2.74 2.034 2.914l16.401.127c1.459-.151 2.396-1.447 2.08-2.883l-1.295-5.876a39.9 39.9 0 0 0 16.056-7.558l3.707 4.76c.903 1.158 2.499 1.265 3.545.236l10.358-12.719c.794-1.233.37-2.774-.948-3.426l-5.395-2.664a39.9 39.9 0 0 0 4.143-17.256l6.033.084c1.469.02 2.55-1.158 2.401-2.619zm-45.053 33.358c-8.453 0-15.305-6.853-15.305-15.305s6.853-15.306 15.305-15.306 15.306 6.853 15.306 15.306-6.853 15.305-15.306 15.305" style="fill:#a4a9ad"/><circle cx="126.714" cy="91.861" r="2.358" style="fill:#d1d3d3"/><circle cx="100.799" cy="117.776" r="2.358" style="fill:#d1d3d3"/><circle cx="126.714" cy="143.692" r="2.358" style="fill:#d1d3d3"/><circle cx="152.629" cy="117.776" r="2.358" style="fill:#d1d3d3"/><path d="M209.114 109.604c-.798-.398-1.701-.038-2.006.801l-1.251 3.437a24.44 24.44 0 0 0-10.701-1.361l-.351-3.645c-.085-.888-.869-1.463-1.742-1.276l-9.458 3.15c-.81.372-1.095 1.302-.63 2.065l1.899 3.125a24.3 24.3 0 0 0-7.982 7.857l-3.101-1.955c-.754-.476-1.688-.207-2.074.597l-3.296 9.409c-.201.869.361 1.663 1.248 1.763l3.641.41a24.4 24.4 0 0 0 1.178 10.723l-3.457 1.195c-.844.29-1.218 1.189-.833 1.993l5.281 8.455c.554.7 1.523.759 2.156.128l2.596-2.58.054.058a24.26 24.26 0 0 0 9.053 5.727l-1.231 3.444c-.3.84.165 1.693 1.034 1.896l9.901 1.169c.892.006 1.544-.715 1.449-1.603l-.392-3.641a24.3 24.3 0 0 0 10.207-3.49l1.92 3.119c.468.76 1.426.932 2.126.379l7.105-6.995c.562-.691.408-1.651-.344-2.132l-3.083-1.971a24.2 24.2 0 0 0 3.653-10.148l3.64.451c.885.11 1.617-.53 1.624-1.422l-1.015-9.918c-.188-.872-1.034-1.353-1.879-1.064l-3.463 1.173a24.25 24.25 0 0 0-5.637-9.196l2.63-2.558c.639-.622.598-1.594-.094-2.157zm-5.026 33.7c-3.633 3.633-9.522 3.633-13.155 0s-3.634-9.523 0-13.156 9.523-3.633 13.157 0c3.632 3.632 3.631 9.523-.002 13.156" style="fill:#a4a9ad"/><circle cx="186.373" cy="125.587" r="1.433" style="fill:#d1d3d3"/><circle cx="186.372" cy="147.863" r="1.433" style="fill:#d1d3d3"/><circle cx="208.649" cy="147.864" r="1.433" style="fill:#d1d3d3"/><circle cx="208.648" cy="125.587" r="1.434" style="fill:#d1d3d3"/><path d="M134.313 240.585q0 11.616-6.396 17.9t-17.979 6.284H94.925v-46.401h16.06q11.17 0 17.25 5.713 6.077 5.713 6.078 16.504m-13.014.444q0-6.379-2.522-9.458-2.524-3.078-7.665-3.079h-3.65v25.994h2.793q5.714 0 8.379-3.316 2.665-3.317 2.665-10.141m21.328 23.741v-46.401h12.536v36.276h17.869v10.125zm37.832 0v-46.401h12.536v36.276h17.869v10.125z" style="fill:#a4a9ad"/><path d="M219.821 50.525h50.525L219.821 0z" style="fill:#d1d3d3"/></svg>