<svg xmlns="http://www.w3.org/2000/svg" xml:space="preserve" width="800" height="800" viewBox="0 0 512 512"><path d="M427.604 421.978v67.517H256V22.505h171.604v67.516c0 24.756-15.225 58.368-33.837 74.696L289.758 256l104.009 91.282c18.612 16.328 33.837 49.94 33.837 74.696" style="fill:#ffebe3"/><path d="M393.846 421.978v67.517H84.396v-67.517c0-24.756 15.225-58.368 33.837-74.696L222.242 256l-104.009-91.282c-18.612-16.328-33.837-49.94-33.837-74.696V22.505h309.451v67.516c0 24.756-12.232 58.368-27.175 74.696L283.119 256l83.552 91.282c14.943 16.328 27.175 49.94 27.175 74.696" style="fill:#fff8f5"/><path d="M256 346.31a8.44 8.44 0 0 1-8.44-8.44V218.205a8.44 8.44 0 0 1 16.88 0V337.87a8.44 8.44 0 0 1-8.44 8.44" style="fill:#ffc1a6"/><path d="M360.088 67.516 256 240.708l115.509-101.354c11.275-9.902 22.337-34.332 22.337-49.332V67.516z" style="fill:#fea680"/><path d="M360.088 67.516v22.505c0 15-8.361 39.43-16.868 49.332L256 240.708 140.491 139.343c-11.275-9.891-22.337-34.321-22.337-49.321V67.516zM256 427.242a8.44 8.44 0 0 1-8.44-8.44v-47.174a8.44 8.44 0 0 1 16.88 0v47.174a8.44 8.44 0 0 1-8.44 8.44" style="fill:#ffc1a6"/><path d="M84.396 486.681a8.44 8.44 0 0 1-8.44-8.44v-56.264c0-27.382 16.123-62.982 36.704-81.043L209.446 256l-96.786-84.935c-20.581-18.062-36.704-53.661-36.704-81.043V33.758a8.44 8.44 0 0 1 16.88 0v56.264c0 22.327 14.177 53.629 30.959 68.357l104.015 91.278a8.44 8.44 0 0 1 0 12.686l-104.015 91.278c-16.781 14.728-30.959 46.03-30.959 68.357v56.264a8.44 8.44 0 0 1-8.44 8.439" style="fill:#abecec"/><circle cx="174.418" cy="106.901" r="8.44" style="fill:#fea680"/><circle cx="219.429" cy="129.407" r="8.44" style="fill:#fea680"/><path d="M427.604 486.681a8.44 8.44 0 0 1-8.44-8.44v-56.264c0-22.327-14.177-53.629-30.959-68.357L284.19 262.342a8.44 8.44 0 0 1 0-12.686l104.015-91.278c16.781-14.728 30.959-46.03 30.959-68.357V33.758a8.44 8.44 0 0 1 16.88 0v56.264c0 27.382-16.123 62.982-36.704 81.043L302.554 256l96.786 84.935c20.581 18.062 36.704 53.661 36.704 81.043v56.264a8.44 8.44 0 0 1-8.44 8.439" style="fill:#abecec"/><path d="M303.149 448.917 256 407.552l22.505 93.195h33.758V469.06c.001-6.122-4.512-16.103-9.114-20.143" style="fill:#fea680"/><path d="M278.505 469.06v31.688h-78.769V469.06c0-6.121 4.512-16.103 9.115-20.142L256 407.552l18.86 41.365c1.834 4.04 3.645 14.021 3.645 20.143" style="fill:#ffc1a6"/><path d="m421.978 0-16.879 33.758h33.758c9.317 0 16.879-7.562 16.879-16.879V0z" style="fill:#fe5f1a"/><path d="M421.978 0v16.879c0 9.317-7.562 16.879-16.879 16.879H73.143c-9.317 0-16.879-7.562-16.879-16.879V0z" style="fill:#fe834d"/><path d="m421.978 512-16.879-33.758h33.758c9.317 0 16.879 7.562 16.879 16.879V512z" style="fill:#fe5f1a"/><path d="M421.978 512v-16.879c0-9.317-7.562-16.879-16.879-16.879H73.143c-9.317 0-16.879 7.562-16.879 16.879V512z" style="fill:#fe834d"/></svg>