<svg xmlns="http://www.w3.org/2000/svg" xml:space="preserve" viewBox="0 0 512 512"><path d="M442.171 69.829c-6.589-6.589-6.589-17.272 0-23.861l41.026-41.026c6.589-6.589 17.272-6.589 23.861 0s6.589 17.273 0 23.861l-41.026 41.026c-6.588 6.589-17.272 6.589-23.861 0" style="fill:#424242"/><path d="m507.058 4.942-64.887 64.887c6.589 6.589 17.272 6.589 23.861 0l41.026-41.026c6.589-6.588 6.589-17.272 0-23.861" style="fill:#363636"/><path d="m445.616 146.113 27.73-86.231a16.873 16.873 0 0 0-21.229-21.229l-86.231 27.73a16.874 16.874 0 0 0-6.765 27.994l58.5 58.5a16.873 16.873 0 0 0 27.995-6.764" style="fill:#ffae00"/><path d="m445.616 146.113 27.73-86.231a16.87 16.87 0 0 0-4.133-17.096l-.025-.022-80.84 80.84 29.274 29.274a16.873 16.873 0 0 0 27.994-6.765" style="fill:#de9700"/><path d="M442.061 133.434 378.567 69.94c-5.052-5.052-13.243-5.052-18.295 0L249.593 180.617c-5.052 5.052-5.052 13.243 0 18.295l63.494 63.494c5.052 5.052 13.243 5.052 18.295 0L442.06 151.729c5.052-5.052 5.052-13.243.001-18.295" style="fill:#204a75"/><path d="m442.061 133.434-31.747-31.747L281.34 230.659l31.747 31.747c5.052 5.052 13.243 5.052 18.295 0L442.06 151.729c5.052-5.052 5.052-13.243.001-18.295" style="fill:#1a3d61"/><path d="M311.486 129.745h115.665v25.871H311.486z" style="fill:#ffae00" transform="rotate(45.001 369.322 142.677)"/><path d="M376.826 134.212h25.871v57.838h-25.871z" style="fill:#de9700" transform="rotate(134.999 389.764 163.13)"/><path d="M295.242 148.886h115.665v20.059H295.242z" style="fill:#1a3d61" transform="rotate(-134.999 353.076 158.917)"/><path d="m338.776 256.036-82.812-82.811c-6.589-6.589-17.272-6.589-23.861 0L87.754 317.574c-6.589 6.589-6.589 17.272 0 23.861l82.811 82.811c6.589 6.589 17.272 6.589 23.861 0l144.349-144.349c6.59-6.589 6.59-17.272.001-23.861" style="fill:#285b91"/><path d="M135.824 435.489c0-15.843-6.17-30.738-17.372-41.94-11.203-11.203-26.097-17.372-41.94-17.372s-30.737 6.169-41.94 17.372c-5.833 5.832-14.815 18.264-25.42 58.689C3.708 472.991.401 491.389.264 492.162a16.868 16.868 0 0 0 19.577 19.576c.774-.138 19.169-3.445 39.922-8.89 40.425-10.604 52.856-19.586 58.689-25.42 11.203-11.202 17.372-26.097 17.372-41.939" style="fill:#ffae00"/><path d="M135.824 435.489c0-15.843-6.17-30.738-17.372-41.94L4.943 507.058a16.86 16.86 0 0 0 14.898 4.679c.774-.138 19.169-3.445 39.922-8.89 40.425-10.604 52.856-19.586 58.689-25.42 11.203-11.201 17.372-26.096 17.372-41.938" style="fill:#de9700"/><path d="M97.376 414.624c8.417 8.417 8.417 22.064 0 30.479-6.244 6.244-28.278 11.505-39.239 13.805a4.262 4.262 0 0 1-5.046-5.042c2.3-10.959 7.561-32.997 13.805-39.242 8.417-8.417 22.064-8.417 30.48 0" style="fill:#ffce00"/><path d="M97.377 414.624 54.25 457.75l.001.001a4.26 4.26 0 0 0 3.887 1.156c10.96-2.3 32.995-7.561 39.239-13.804 8.416-8.415 8.416-22.062 0-30.479" style="fill:#e8bb00"/><path d="M338.776 256.036 297.37 214.63 129.159 382.841l41.406 41.406c6.589 6.589 17.272 6.589 23.861 0l144.349-144.349c6.59-6.59 6.59-17.273.001-23.862" style="fill:#224e7d"/><path d="M168.481 251.223h150.861v33.745H168.481z" style="fill:#ffae00" transform="rotate(45.001 243.915 268.094)"/><path d="M253.704 257.05h33.745v75.43h-33.745z" style="fill:#de9700" transform="rotate(134.999 270.578 294.766)"/><path d="M147.296 276.189h150.861v26.161H147.296z" style="fill:#224e7d" transform="rotate(-134.999 222.727 289.272)"/><path d="M246.806 196.897h115.733v20.743H246.806z" style="fill:#1a3d61" transform="rotate(-134.999 304.674 207.27)"/></svg>