<svg xmlns="http://www.w3.org/2000/svg" xml:space="preserve" viewBox="0 0 30 30"><path d="M26.7 12.3c-2.1.4-4 0-4.7-1.3s-.2-3.1 1.3-4.7c-1.3-1.3-3-2.2-4.8-2.8-.7 2.1-2 3.5-3.5 3.5s-2.8-1.4-3.5-3.5C9.7 4.1 8.1 5 6.8 6.3c1.5 1.6 2 3.5 1.3 4.7-.7 1.3-2.6 1.7-4.7 1.3-.3.8-.4 1.8-.4 2.7s.1 1.9.3 2.7c2.1-.4 4 0 4.7 1.3s.2 3.1-1.3 4.7c1.3 1.3 3 2.2 4.8 2.8.7-2.1 2-3.5 3.5-3.5s2.8 1.4 3.5 3.5c1.8-.5 3.4-1.5 4.8-2.8-1.5-1.6-2-3.5-1.3-4.7.7-1.3 2.6-1.7 4.7-1.3q.3-1.35.3-2.7c0-1.35-.1-1.9-.3-2.7" style="fill:#8a8aff;stroke:#8a8aff;stroke-width:2;stroke-linecap:round;stroke-linejoin:round;stroke-miterlimit:10"/><circle cx="15" cy="15" r="3" style="fill:#e3faff;stroke:#e3faff;stroke-width:2;stroke-linecap:round;stroke-linejoin:round;stroke-miterlimit:10"/></svg>