<svg xmlns="http://www.w3.org/2000/svg" xml:space="preserve" width="830" height="442" viewBox="0 0 830 442"><g style="opacity:.6"><path d="M10 187h117v50H10z" style="fill:#bbb"/></g><path d="M8.5 185.5h116v49H8.5z" style="fill:#fff"/><path d="M124 186v48H9v-48zm1-1H8v50h117z" style="fill:#e5e5e5"/><path d="M76.215 205.883q-.35.545-.644.924h5.166v.812q-.854 1.19-2.479 2.113 2.27.897 5.124 1.107l-.224.908q-3.375-.251-5.95-1.498-2.451 1.121-6.258 1.779l-.378-.896q3.458-.56 5.614-1.414a13 13 0 0 1-1.975-1.428q-.77.7-1.75 1.316l-.644-.785a10.3 10.3 0 0 0 3.416-3.148zm6.468-1.414v2.646h-1.021v-1.736h-9.324v1.736h-1.021v-2.646h5.124a12 12 0 0 0-.519-.98l1.106-.168q.155.308.489 1.148zm-1.567 7.447v4.383h-.98v-.602h-6.02v.602h-.98v-4.383zm-7 2.871h6.02v-1.961h-6.02zm5.418-7.127h-4.69l-.042.043a12.6 12.6 0 0 0 2.422 1.568q1.427-.699 2.31-1.611m7.658 2.186q-.112 3.765-1.988 6.467l-.742-.672q1.694-2.339 1.736-6.117v-4.383h4.563a14 14 0 0 0-.812-1.637l1.078-.17q.378.8.756 1.807h4.424v4.705zm7.993-3.711h-7.993v2.73h7.993z" style="fill:#444"/><path d="M40 200c2.206 0 4 1.794 4 4s-1.794 4-4 4-4-1.794-4-4 1.794-4 4-4m0-2a6 6 0 1 0 0 12 6 6 0 0 0 0-12m4.004 16A6.003 6.003 0 0 1 50 219.996V221H30v-1.004A6.003 6.003 0 0 1 35.996 214zm0-2h-8.007A7.996 7.996 0 0 0 28 219.996V223h24v-3.004A7.996 7.996 0 0 0 44.004 212m8.994 0h-3.021c.76.569 1.435 1.242 2.006 2h1.015A4.006 4.006 0 0 1 57 218.002V219h-3.05q.05.492.05.996V221h5v-2.998A6 6 0 0 0 52.998 212M49 199c-.845 0-1.628.229-2.326.599.365.552.659 1.153.88 1.789.43-.24.919-.388 1.446-.388 1.654 0 3 1.346 3 3s-1.346 3-3 3a2.96 2.96 0 0 1-1.447-.388 8 8 0 0 1-.88 1.789c.699.37 1.482.599 2.327.599a5 5 0 0 0 0-10" style="fill:#878787"/><path d="M160 40h481v98H160z" style="fill:#cee3ff"/><path d="M193.925 59.822q-.238 2.702-1.568 4.452l-.77-.687q1.344-1.875 1.386-4.746v-6.72h10.43v10.486q0 1.47-1.47 1.47h-1.61l-.266-.994q1.12.056 1.554.056.77 0 .77-.882v-2.436h-3.808v4.102h-1.036v-4.102h-3.612zm3.612-6.72h-3.556v2.408h3.556zm-3.556 3.346v2.45h3.556v-2.45zm8.4-.938v-2.408h-3.808v2.408zm0 3.388v-2.45h-3.808v2.45zm5.81-.91q-.112 3.767-1.988 6.468l-.742-.672q1.694-2.339 1.736-6.118v-4.382h4.564a14 14 0 0 0-.812-1.638l1.078-.169q.378.798.756 1.807h4.424v4.704zm7.994-3.71h-7.994v2.729h7.994zm3.85 9.968-.21-.966q.601.069 1.078.069.364 0 .364-.35v-3.528q-.784.309-1.414.504l-.238-.993a17 17 0 0 0 1.652-.519v-3.36h-1.554v-.966h1.554v-2.562h.994v2.562h1.302v.966h-1.302v2.94q.308-.14 1.246-.644v1.021a31 31 0 0 1-1.246.63v4.187q0 1.008-1.008 1.008zm12.04-8.4v2.66h-.812v.588q-.714 1.68-2.324 2.926 1.47.868 3.528 1.456l-.588.896q-2.323-.7-3.822-1.736-1.667 1.023-4.214 1.708l-.532-.938q2.352-.56 3.892-1.414-1.428-1.218-2.044-2.842h-.574v-.645h-.672v-2.66h5.446q.756-1.218 1.316-2.688l.938.35q-.602 1.4-1.218 2.338zm-.084-3.374q-2.997.574-7.882.574l-.294-.91q4.634 0 7.7-.504zm-6.664.924q.602 1.022.91 1.806l-.84.308a12.6 12.6 0 0 0-.938-1.876zm-.448 4.83h6.216v-1.414h-6.216zm1.26.924q.63 1.288 1.946 2.296 1.386-.995 2.128-2.296zm1.638-5.81q.588 1.008.924 1.849l-.84.308a12.4 12.4 0 0 0-.952-1.932zm9.24 11.004h-1.008v-7.266a15.9 15.9 0 0 1-2.03 4.004l-.462-1.134a12.4 12.4 0 0 0 2.464-4.676h-2.17v-.967h2.198v-2.729h1.008v2.729h1.848v.967h-1.848v.798a31 31 0 0 1 2.128 2.281l-.574.854a31 31 0 0 0-1.554-2.1zm2.744-10.962h-.56v-.966h6.3v.952q-.602 3.92-2.38 6.748a15.3 15.3 0 0 0 3.388 3.43l-.686.812q-1.989-1.569-3.29-3.389a13.8 13.8 0 0 1-3.598 3.374l-.644-.812q2.226-1.484 3.64-3.458-1.876-3.036-2.17-6.691m.98 0q.252 3.249 1.778 5.796 1.498-2.492 2.002-5.796zm8.4.098a16.6 16.6 0 0 1 1.918 1.567 8.1 8.1 0 0 0 1.554-2.03h-3.5v-.924h4.648v.756a8.2 8.2 0 0 1-1.638 2.507h4.312a11 11 0 0 1-2.268-3.248l.826-.462q.364.854.952 1.68a7.5 7.5 0 0 0 1.568-1.512l.714.63a8.6 8.6 0 0 1-1.722 1.596q.42.519 1.036 1.063a8.7 8.7 0 0 0 1.736-1.68l.7.63a8.4 8.4 0 0 1-1.708 1.652 14 14 0 0 0 2.324 1.442l-.658.77q-1.82-.993-3.15-2.226v.588h-5.11v-.477q-1.372 1.247-3.444 2.114l-.602-.784q1.526-.615 2.73-1.498a15 15 0 0 0-1.89-1.512zm2.24 7.686a8.8 8.8 0 0 1 1.302 1.862h2.772q.657-.925 1.134-1.933l.952.322a10.3 10.3 0 0 1-1.008 1.61h3.444v.966h-11.984v-.966h3.64a8.7 8.7 0 0 0-1.204-1.513zm-1.246-3.71h7.784v3.402h-7.784zm6.776 2.506v-1.624h-5.768v1.624zm6.496-7.868h8.078v4.55h2.52v.91h-5.586v1.597q.518.615 1.078 1.105 1.498-.84 2.59-2.394l.77.644q-1.19 1.526-2.674 2.311 1.652 1.301 3.864 2.254l-.504.896q-3.234-1.512-5.124-3.696v2.885q0 1.26-1.106 1.26h-1.61l-.21-.952q.868.07 1.484.07.434 0 .434-.616v-2.562q-2.115 1.932-5.152 3.557l-.406-.938q3.234-1.54 5.558-3.668v-1.75h-5.404v-.91h8.456V55.29h-6.58v-.882h6.58v-1.4h-7.056zm.112 5.992a14 14 0 0 1 2.142 1.778l-.644.658q-.84-.883-2.17-1.792zM178.499 50a1.495 1.495 0 0 0-.5 2.908V55h1v-2.092a1.496 1.496 0 0 0-.5-2.908" style="fill:#00a4ff"/><circle cx="178.499" cy="63.5" r="1.5" style="fill:#00a4ff"/><path d="M174.25 53.201a1.5 1.5 0 0 0-1.5 2.598q.122.069.25.112V58h1v-2.093q.21-.072.392-.202l1.693.978.5-.866-1.638-.946a1.496 1.496 0 0 0-.697-1.67" style="fill:#00a4ff"/><circle cx="183.5" cy="60.5" r="1.5" style="fill:#00a4ff"/><path d="M179.989 57.357a1 1 0 0 0-.015-.102q-.008-.05-.019-.1l-.022-.083a2 2 0 0 0-.072-.193q-.02-.043-.043-.084l-.02-.045c-.01-.023-.02-.026-.029-.04q-.025-.04-.052-.079-.03-.042-.064-.082-.032-.04-.066-.077l-.06-.06-.077-.067q-.04-.033-.081-.064l-.079-.052-.04-.029c-.015-.008-.03-.012-.045-.02l-.084-.042q-.047-.02-.096-.038-.048-.019-.096-.033a1 1 0 0 0-.183-.041l-.102-.015q-.047-.004-.094-.005c-.017 0-.032-.005-.049-.005s-.032.004-.049.005l-.094.005a1 1 0 0 0-.102.015q-.05.008-.1.019l-.083.022a2 2 0 0 0-.192.071q-.043.02-.084.042c-.015.008-.031.012-.045.02l-.04.029q-.04.025-.079.052-.041.03-.081.064a1.3 1.3 0 0 0-.203.204q-.034.04-.064.082l-.052.079-.029.04c-.015.02-.012.03-.02.045q-.023.042-.043.084l-.039.097q-.019.047-.033.096a1 1 0 0 0-.041.183l-.015.102q-.004.047-.005.094l-.005.049c-.002.025.004.032.005.049q.001.047.005.094.005.051.015.102.008.05.019.1l.022.083a2 2 0 0 0 .072.193q.02.043.043.084c.008.015.012.03.02.045l.029.04q.024.04.052.079.03.042.064.082.032.04.066.077a2 2 0 0 0 .138.127q.04.033.081.064l.079.052.04.029c.015.008.03.012.045.02q.041.023.084.043.048.021.097.039l.024.011V61h1v-2.088l.024-.011q.05-.017.097-.039.043-.02.084-.043l.045-.02.04-.029q.041-.025.079-.052.042-.03.081-.064.04-.032.077-.066a2 2 0 0 0 .127-.138q.034-.04.064-.082l.052-.079.029-.04c.008-.015.012-.03.02-.045q.023-.041.043-.084.02-.047.039-.097.019-.047.033-.096.013-.042.022-.083.012-.05.019-.1l.015-.102q.004-.047.005-.094l.005-.049c.002-.024-.004-.032-.005-.049-.005-.031-.005-.062-.009-.093" style="fill:#00a4ff"/><circle cx="173.5" cy="60.5" r="1.5" style="fill:#00a4ff"/><path d="M182.999 55.907V58h1v-2.089q.128-.044.25-.112a1.5 1.5 0 0 0-1.5-2.598 1.496 1.496 0 0 0-.697 1.671l-1.638.946.5.866 1.694-.978q.182.129.391.201" style="fill:#00a4ff"/><g style="opacity:.6"><path d="M173 78h133v50H173z" style="fill:#bbb"/></g><path d="M171.5 76.5h132v49h-132z" style="fill:#fff"/><path d="M303 77v48H172V77zm1-1H171v50h133z" style="fill:#e5e5e5"/><path d="M236.933 95.861h1.33l3.935 9.996h-1.246l-1.064-2.801h-4.592l-1.063 2.801H233zm-1.273 6.231h3.864l-1.891-4.998h-.056zm7.546-6.231h4.088q3.444 0 3.444 2.939 0 2.969-3.458 2.969h-2.926v4.088h-1.148zm1.148.994v3.92h2.87q1.19 0 1.792-.49.573-.49.573-1.484 0-1.022-.588-1.455-.575-.491-1.777-.49h-2.87zm7.923-.994h1.134v9.996h-1.134zm12.152 11.313-.266-.98 1.344.041q.589 0 .588-.574V95.96h-9.184v11.27h-.994V94.992h11.172v10.893q0 1.289-1.246 1.289zm-3.332-3.096a69 69 0 0 0-1.33-2.016q-.74 2.044-1.834 3.529l-.644-.785q1.092-1.554 1.806-3.682a44 44 0 0 0-1.974-2.449l.63-.604q.84.883 1.666 1.988a29 29 0 0 0 .658-3.164l.925.169a29 29 0 0 1-.882 3.949q.924 1.26 1.651 2.393zm4.103.645a79 79 0 0 0-1.414-2.324q-.84 2.06-1.975 3.529l-.644-.771q1.19-1.608 1.96-3.738a37 37 0 0 0-1.918-2.604l.63-.602a24 24 0 0 1 1.652 2.113q.433-1.457.742-3.387l.951.168q-.378 2.323-1.008 4.213a76 76 0 0 1 1.708 2.73zm13.874-10.108a12 12 0 0 1-1.261 2.715h2.885v.98h-4.677v.658q-.041 1.163-.195 1.945h5.684v.98h-5.096q1.035 2.843 5.432 4.41l-.588.938q-4.605-1.861-5.74-5.066-.406 1.217-1.063 2.1-1.443 1.86-4.662 2.883l-.546-.881q3.22-1.036 4.479-2.717a6.4 6.4 0 0 0 .798-1.666h-5.025v-.98h5.278q.195-.923.21-1.945v-.658h-4.69v-.98h6.398q.77-1.175 1.413-2.98zm-6.231-.14q.868 1.133 1.596 2.381l-.909.461a16.5 16.5 0 0 0-1.61-2.393z" style="fill:#444"/><path d="M206.2 115c-7.2 0-13-5.8-13-13s5.8-13 13-13c6.5 0 11.9 4.8 12.8 11h2c-1-7.3-7.2-13-14.9-13-8.3 0-15 6.7-15 15s6.7 15 15 15c7.6 0 13.9-5.7 14.9-13h-2c-.9 6.2-6.3 11-12.8 11" style="fill:#00a4ff"/><path d="M198.2 97h16v2h-16zm0 11h16v2h-16z" style="fill:#00a4ff"/><path d="M198.2 97h2v3h-2zm0 10h2v3h-2zm14 0h2v3h-2zm0-10h2v3h-2zm-11-4h2v4h-2zm8 0h2v4h-2zm-10 8h2v5h-2zm3 0h2v5h-2z" style="fill:#00a4ff"/><path d="M200.2 101h3v1h-3zm0 2h3v1h-3zm6-2h4v1h-4zm-1 2h4v1h-4z" style="fill:#00a4ff"/><path d="M205.2 101h2v5h-2zm3 0h2v3h-2zm3 0h2v5h-2z" style="fill:#00a4ff"/><g style="opacity:.6"><path d="M335 78h133v50H335z" style="fill:#bbb"/></g><path d="M333.5 76.5h132v49h-132z" style="fill:#fff"/><path d="M465 77v48H334V77zm1-1H333v50h133z" style="fill:#e5e5e5"/><path d="M395.742 99.137H408.3v1.008h-6.72q-1.905 3.92-3.374 5.516a97 97 0 0 0 7.532-.713 51 51 0 0 0-1.681-2.771l.812-.504q1.904 2.854 2.981 5.053l-.896.631a35 35 0 0 0-.729-1.484q-4.046.519-9.296.867l-.266-1.021q.084-.027.238-.098 1.357-1.022 3.556-5.475h-4.718v-1.009zm1.343-3.907h9.968v.98h-9.968zm23.577 2.268h.966v9.787h-.966v-.785h-9.324v.771h-.966v-9.787h.966v8.092h9.324zm-9.059 5.67q2.143-1.245 4.145-3.148v-2.395q2.086-1.037 3.164-1.723h-7.154v-.951h8.666v.951a44 44 0 0 1-3.738 2.283v2.141a47 47 0 0 1 3.696 2.871l-.588.881q-1.791-1.734-3.108-2.744v2.354q0 1.23-1.147 1.23h-1.274l-.252-.938q.7.03 1.162.029.574 0 .574-.672v-2.172a25.6 25.6 0 0 1-3.794 2.982zm1.246-5.234q1.316 1.217 1.975 2.043l-.771.533q-.657-.897-1.945-2.115zm7.183.293a10.2 10.2 0 0 1-1.988 2.338l-.728-.518a9.5 9.5 0 0 0 1.903-2.213zm7.223 2.8-.28.77h2.912v.854a5.8 5.8 0 0 1-1.525 2.381q.993.42 1.89.924l-.546.812a20 20 0 0 0-2.128-1.092q-1.414.966-3.5 1.553l-.49-.867q1.75-.463 2.94-1.148l-1.946-.783q.588-.967.952-1.723h-1.638v-.91h2.058q.35-.979.322-.883zm-3.317-3.92h2.729v-2.674h.938v2.674h2.548v.881h-2.548v.154q1.148.574 2.323 1.289l-.518.783a26 26 0 0 0-1.806-1.344v1.82h-.938v-2.66q-.686 1.638-2.506 2.869l-.49-.811q1.624-.953 2.254-2.102h-1.987zm1.063-2.38q.546.855.896 1.723l-.784.363a13 13 0 0 0-.952-1.805zm3.934 7.98h-2.365q-.35.715-.756 1.33.84.294 1.582.588 1.05-.853 1.539-1.918m1.093-7.686a10 10 0 0 1-1.078 1.82l-.756-.406q.671-.951 1.036-1.807zm1.512 4.76a13 13 0 0 1-.826 1.723l-.63-.771q1.246-2.365 1.666-6.342l.98.168q-.098.869-.309 2.002h3.696v.967h-.91q-.085 3.498-1.246 5.992 1.106 1.847 2.59 2.842l-.574.854q-1.441-1.008-2.506-2.758a9.5 9.5 0 0 1-2.604 2.814l-.532-.855a8.15 8.15 0 0 0 2.59-2.926q-.825-1.652-1.385-3.71m.671-2.254q-.14.503-.196.742.519 2.378 1.372 4.186.812-2.127.896-4.928z" style="fill:#444"/><path d="M368.07 115c-7.213 0-13.061-5.82-13.061-13s5.848-13 13.061-13c6.528 0 11.922 4.772 12.89 11h2.03c-.985-7.336-7.281-13-14.921-13-8.323 0-15.07 6.716-15.07 15s6.747 15 15.07 15c7.64 0 13.936-5.664 14.921-13h-2.03c-.968 6.228-6.362 11-12.89 11" style="fill:#00a4ff"/><path d="m360.991 104 5 3v2l-5-3zm0-4 5-3v-2l-5 3z" style="fill:#00a4ff"/><path d="M360.991 98h2v8h-2zm12 0h2v8h-2z" style="fill:#00a4ff"/><path d="m374.991 106-5 3v-2l5-3zm0-8-5-3v2l5 3zm-7 7h-2l2-6h2z" style="fill:#00a4ff"/><path d="M668 258h155v168H668z" style="fill:#cee3ff"/><path d="M706.447 269.576q1.763 2.884 6.048 5.096l-.603.91q-3.975-2.071-5.894-5.068-2.338 3.318-5.895 5.124l-.602-.91q3.92-1.987 6.048-5.151h.898zm-.967 4.13h1.036v8.68h-1.036zm9.353-1.386a20.5 20.5 0 0 1-.477 4.004l-.825-.238q.447-1.806.504-3.822zm.714-2.716h1.021v12.74h-1.021zm2.002 2.366q.448.995.812 2.366a12.2 12.2 0 0 0 .826-3.906l.91.126a16 16 0 0 1-.168 1.681h2.002v-2.618h1.036v2.618h3.052v.979h-3.052v3.374h2.842v.994h-2.842V281h3.416v.98h-8.456V281h4.004v-3.416h-3.206v-.994h3.206v-3.374h-2.184a11 11 0 0 1-1.106 2.828l-.756-.672q.238-.463.42-.882l-.7.182a18 18 0 0 0-.798-2.464zm15.218-2.03a14.6 14.6 0 0 1-1.848 3.22v9.268h-1.008v-8.036a21 21 0 0 1-2.044 1.933l-.322-1.05q2.94-2.52 4.284-5.782zm2.898 12.236q-1.498 0-1.498-1.483v-4.271q-.813.463-1.807.938l-.447-.952a29 29 0 0 0 2.254-1.162v-5.614h1.008v4.998a20 20 0 0 0 3.864-3.346l.7.798q-1.947 2.087-4.564 3.738v4.731q0 .658.728.658h2.24q.546 0 .812-.35.223-.322.308-2.422l.938.308q-.155 2.421-.504 2.926-.38.504-1.387.504h-2.645zm10.22-5.824q-.63.308-1.302.589V281q0 1.176-1.246 1.176h-1.288l-.21-.979q.658.069 1.147.069.574 0 .574-.518v-3.402q-1.078.364-1.75.561l-.252-1.008q.994-.224 2.002-.574v-3.221h-1.792v-.979h1.792v-2.59h1.022v2.59h1.414v.979h-1.414v2.828q.783-.349 1.302-.602zm2.282 5.348v.644h-.994v-8.204q-.462.728-1.106 1.513l-.336-1.064a14.2 14.2 0 0 0 2.422-4.998l.98.196a17 17 0 0 1-.784 2.198h2.534a15.4 15.4 0 0 0-.826-2.17l.966-.267q.49 1.232.771 2.296l-.378.141h2.674v.979h-2.437v1.904h2.156v.952h-2.156v1.89h2.156v.938h-2.156v2.086h2.591v.966zm2.492-8.736h-2.492v1.904h2.492zm-2.492 2.856v1.89h2.492v-1.89zm0 2.828v2.086h2.492v-2.086zm7.952-5.18h3.947q.28-.588.462-1.063l.98.168a9 9 0 0 1-.168.447l-.182.448h6.832v.924h-7.294q-.616 1.093-1.498 2.101v5.936h-.967v-4.956q-.826.742-1.932 1.498l-.63-.812q2.491-1.638 3.864-3.767h-3.416v-.924zm-.182-2.884h3.179v-1.008h1.035v1.008h3.696v-1.008h1.036v1.008h3.178v.924h-3.178v1.022h-1.036v-1.022h-3.696v1.008h-1.035v-1.008h-3.179zm8.106 6.944q.588-.364 1.75-1.135h-4.606v-.924h6.034v.729a55 55 0 0 1-2.17 1.609v.589h3.08v.951h-3.08v1.891q0 1.134-1.12 1.134h-1.638l-.294-.98q1.078.07 1.525.07.519 0 .519-.504v-1.61h-3.864v-.951h3.864zM686.499 268a1.495 1.495 0 0 0-.5 2.908V273h1v-2.092a1.496 1.496 0 0 0-.5-2.908" style="fill:#00a4ff"/><circle cx="686.499" cy="281.5" r="1.5" style="fill:#00a4ff"/><path d="M682.25 271.201a1.5 1.5 0 0 0-1.5 2.598q.122.069.25.112V276h1v-2.093q.21-.072.392-.202l1.693.978.5-.866-1.638-.946a1.5 1.5 0 0 0-.697-1.67" style="fill:#00a4ff"/><circle cx="691.5" cy="278.5" r="1.5" style="fill:#00a4ff"/><path d="M687.989 275.357a1 1 0 0 0-.015-.102q-.008-.05-.019-.1l-.022-.083a2 2 0 0 0-.072-.193q-.02-.043-.043-.084c-.008-.015-.012-.03-.02-.045s-.02-.026-.029-.04q-.024-.04-.052-.079-.03-.042-.064-.082-.032-.04-.066-.077l-.06-.06-.077-.067q-.04-.033-.081-.064l-.079-.052-.04-.029c-.015-.008-.03-.012-.045-.02l-.084-.042q-.047-.02-.096-.038-.048-.019-.096-.033a1 1 0 0 0-.183-.041l-.102-.015q-.047-.004-.094-.005c-.017 0-.032-.005-.049-.005s-.032.004-.049.005l-.094.005a1 1 0 0 0-.102.015q-.05.008-.1.019l-.083.022a2 2 0 0 0-.192.071q-.043.02-.084.042c-.015.008-.031.012-.045.02l-.04.029q-.04.024-.079.052-.041.03-.081.064a1.3 1.3 0 0 0-.203.204q-.034.04-.064.082l-.052.079-.029.04c-.015.02-.012.03-.02.045q-.023.042-.043.084l-.039.097q-.019.047-.033.096a1 1 0 0 0-.041.183l-.015.102q-.004.047-.005.094l-.005.049c-.002.025.004.032.005.049q.001.047.005.094.005.051.015.102.008.05.019.1l.022.083a2 2 0 0 0 .072.193q.02.043.043.084c.008.015.012.03.02.045l.029.04q.024.04.052.079.03.042.064.082.032.04.066.077a2 2 0 0 0 .138.127q.04.034.081.064l.079.052.04.029c.015.008.03.012.045.02q.041.023.084.043.048.021.097.039l.024.011V279h1v-2.088l.024-.011q.05-.017.097-.039.043-.02.084-.043l.045-.02.04-.029q.041-.024.079-.052.042-.03.081-.064.04-.032.077-.066a2 2 0 0 0 .127-.138q.034-.04.064-.082l.052-.079.029-.04c.008-.015.012-.03.02-.045q.023-.041.043-.084.02-.047.039-.097.019-.047.033-.096.013-.041.022-.083.012-.05.019-.1l.015-.102q.004-.047.005-.094l.005-.049c.002-.025-.004-.032-.005-.049q-.006-.046-.009-.093" style="fill:#00a4ff"/><circle cx="681.5" cy="278.5" r="1.5" style="fill:#00a4ff"/><path d="M690.999 273.907V276h1v-2.089q.128-.044.25-.112a1.5 1.5 0 0 0-1.5-2.598 1.496 1.496 0 0 0-.697 1.671l-1.638.946.5.866 1.694-.978c.12.087.253.152.391.201" style="fill:#00a4ff"/><g style="opacity:.6"><path d="M680 297h133v50H680z" style="fill:#bbb"/></g><path d="M678.5 295.5h132v49h-132z" style="fill:#fff"/><path d="M810 296v48H679v-48zm1-1H678v50h133z" style="fill:#e5e5e5"/><path d="M740.742 318.137H753.3v1.008h-6.72q-1.905 3.92-3.374 5.516a97 97 0 0 0 7.532-.713 51 51 0 0 0-1.681-2.771l.812-.504q1.904 2.854 2.981 5.053l-.896.631a35 35 0 0 0-.729-1.484q-4.046.519-9.296.867l-.266-1.021q.084-.027.238-.098 1.357-1.022 3.556-5.475h-4.718v-1.009zm1.344-3.907h9.968v.98h-9.968zm23.576 2.268h.966v9.787h-.966v-.785h-9.324v.771h-.966v-9.787h.966v8.092h9.324zm-9.058 5.67q2.143-1.245 4.145-3.148v-2.395q2.086-1.037 3.164-1.723h-7.154v-.951h8.666v.951a44 44 0 0 1-3.738 2.283v2.141a47 47 0 0 1 3.696 2.871l-.588.881q-1.791-1.734-3.108-2.744v2.354q0 1.23-1.147 1.23h-1.274l-.252-.938q.7.03 1.162.029.574 0 .574-.672v-2.172a25.6 25.6 0 0 1-3.794 2.982zm1.246-5.234q1.316 1.216 1.975 2.043l-.771.533q-.657-.897-1.945-2.115zm7.182.293a10.2 10.2 0 0 1-1.988 2.338l-.728-.518a9.5 9.5 0 0 0 1.903-2.213zm7.224 2.8-.28.77h2.912v.854a5.8 5.8 0 0 1-1.525 2.381q.993.42 1.89.924l-.546.812a20 20 0 0 0-2.128-1.092q-1.414.965-3.5 1.553l-.49-.867q1.75-.463 2.94-1.148l-1.946-.783q.588-.967.952-1.723h-1.638v-.91h2.058q.35-.978.322-.883zm-3.318-3.92h2.729v-2.674h.938v2.674h2.548v.881h-2.548v.154q1.148.574 2.323 1.289l-.518.783a26 26 0 0 0-1.806-1.344v1.82h-.938v-2.66q-.686 1.638-2.506 2.869l-.49-.811q1.624-.953 2.254-2.102h-1.987zm1.064-2.38q.546.856.896 1.723l-.784.363a13 13 0 0 0-.952-1.805zm3.934 7.98h-2.365q-.35.715-.756 1.33.84.294 1.582.588 1.048-.853 1.539-1.918m1.092-7.686a10 10 0 0 1-1.078 1.82l-.756-.406q.671-.951 1.036-1.807zm1.512 4.76a13 13 0 0 1-.826 1.723l-.63-.771q1.246-2.365 1.666-6.342l.98.168q-.098.869-.309 2.002h3.696v.967h-.91q-.084 3.499-1.246 5.992 1.106 1.847 2.59 2.842l-.574.854q-1.441-1.009-2.506-2.758a9.5 9.5 0 0 1-2.604 2.814l-.532-.855a8.15 8.15 0 0 0 2.59-2.926q-.825-1.652-1.385-3.71m.672-2.254q-.14.503-.196.742.519 2.378 1.372 4.186.812-2.127.896-4.928z" style="fill:#444"/><path d="M713.07 334c-7.213 0-13.061-5.82-13.061-13s5.848-13 13.061-13c6.528 0 11.922 4.772 12.89 11h2.03c-.985-7.336-7.281-13-14.921-13-8.323 0-15.07 6.716-15.07 15s6.747 15 15.07 15c7.64 0 13.936-5.664 14.921-13h-2.03c-.968 6.228-6.362 11-12.89 11" style="fill:#00a4ff"/><path d="m705.991 323 5 3v2l-5-3zm0-4 5-3v-2l-5 3z" style="fill:#00a4ff"/><path d="M705.991 317h2v8h-2zm12 0h2v8h-2z" style="fill:#00a4ff"/><path d="m719.991 325-5 3v-2l5-3zm0-8-5-3v2l5 3zm-7 7h-2l2-6h2z" style="fill:#00a4ff"/><g style="opacity:.6"><path d="M496 78h133v50H496z" style="fill:#bbb"/></g><path d="M494.5 76.5h132v49h-132z" style="fill:#fff"/><path d="M626 77v48H495V77zm1-1H494v50h133z" style="fill:#e5e5e5"/><path d="M556.742 99.137H569.3v1.008h-6.72q-1.905 3.92-3.374 5.516a97 97 0 0 0 7.532-.713 51 51 0 0 0-1.681-2.771l.812-.504q1.904 2.854 2.981 5.053l-.896.631a35 35 0 0 0-.729-1.484q-4.046.519-9.296.867l-.266-1.021q.084-.027.238-.098 1.357-1.022 3.556-5.475h-4.718v-1.009zm1.344-3.907h9.968v.98h-9.968zm16.17 5.797-.28.77h2.912v.854a5.8 5.8 0 0 1-1.525 2.381q.993.42 1.89.924l-.546.812a20 20 0 0 0-2.128-1.092q-1.414.966-3.5 1.553l-.49-.867q1.75-.463 2.94-1.148l-1.946-.783q.588-.967.952-1.723h-1.638v-.91h2.058q.35-.979.322-.883zm-3.318-3.92h2.729v-2.674h.938v2.674h2.548v.881h-2.548v.154q1.148.574 2.323 1.289l-.518.783a26 26 0 0 0-1.806-1.344v1.82h-.938v-2.66q-.686 1.638-2.506 2.869l-.49-.811q1.624-.953 2.254-2.102h-1.987zm1.064-2.38q.546.855.896 1.723l-.784.363a13 13 0 0 0-.952-1.805zm3.934 7.98h-2.365q-.35.715-.756 1.33.84.294 1.582.588 1.048-.853 1.539-1.918m1.092-7.686a10 10 0 0 1-1.078 1.82l-.756-.406q.671-.951 1.036-1.807zm1.512 4.76a13 13 0 0 1-.826 1.723l-.63-.771q1.246-2.365 1.666-6.342l.98.168q-.098.869-.309 2.002h3.696v.967h-.91q-.085 3.498-1.246 5.992 1.106 1.847 2.59 2.842l-.574.854q-1.441-1.008-2.506-2.758a9.5 9.5 0 0 1-2.604 2.814l-.532-.855a8.15 8.15 0 0 0 2.59-2.926q-.825-1.652-1.385-3.71m.672-2.254q-.14.503-.196.742.519 2.378 1.372 4.186.812-2.127.896-4.928zm5.894 9.604-.21-.951q.601.068 1.063.068.532 0 .532-.615v-3.416q-.98.364-1.652.574l-.252-.98q.953-.222 1.904-.574v-3.164h-1.681v-.965h1.681v-2.646h.979v2.646h1.345v.965h-1.345v2.758q.672-.292 1.303-.629v.994q-.435.223-1.303.615v4.074q0 1.246-1.176 1.246zm5.376-6.188q-.252 3.584-1.639 6.314l-.784-.701q1.483-2.772 1.513-7.195v-4.383h7.378v3.402h-2.632v1.652h2.996v.91h-2.996v1.721h2.352v4.594h-.938v-.688h-3.794v.688H591v-4.594h2.338v-1.721zm2.856-2.562h-2.786l-.014 1.652h2.8zm2.632-2.465h-5.418v1.555h5.418zm-4.032 9.76h3.794v-2.115h-3.794zm13.538-11.369q.393.63.715 1.357h5.04v.98h-10.374v3.193q-.085 4.675-1.414 7.42l-.826-.742q1.161-2.408 1.204-6.678v-4.174h5.264a9 9 0 0 0-.728-1.16zm.056 2.955q-.126.392-.378 1.119h5.46v.883h-5.811a17.4 17.4 0 0 1-1.26 2.393h2.618v-1.693h1.008v1.693h3.122v.91h-3.122v1.568h4.187v.924h-4.187v2.213h-1.008v-2.213h-5.054v-.924h5.054v-1.568h-3.668l-.21-.867q.811-1.008 1.456-2.436h-2.114v-.883h2.478q.238-.658.463-1.344z" style="fill:#444"/><path d="M516 110h-2c0 2.51 4.444 4.582 10.231 4.94a7 7 0 0 1-.955-2.055c-4.197-.357-7.276-1.512-7.276-2.885m10.6-6.009q-.298.008-.6.009c-5.523 0-10-1.343-10-3v-6.238C518.149 96.11 521.824 97 526 97s7.851-.89 10-2.238v4.493a8 8 0 0 1 2 .824V92c0-2.762-5.373-5-12-5s-12 2.239-12 5v18h2v-6.238c2.003 1.257 5.337 2.105 9.16 2.216a7 7 0 0 1 1.072-.861c.094-.388.221-.763.368-1.126M526 89c5.523 0 10 1.343 10 3s-4.477 3-10 3-10-1.343-10-3 4.477-3 10-3m12.986 18.137c.001-.047.014-.09.014-.137a5 5 0 1 0-10 0c0 .047.012.091.014.137A3.99 3.99 0 0 0 526 111a4 4 0 0 0 4 4h8a4 4 0 0 0 4-4 3.99 3.99 0 0 0-3.014-3.863M538 113h-8c-1.103 0-2-.897-2-2 0-.907.62-1.698 1.508-1.925l1.549-.395-.044-1.598a3 3 0 0 0-.012-.174 3.003 3.003 0 0 1 2.999-2.907 3.004 3.004 0 0 1 2.999 2.907q-.009.087-.012.175l-.044 1.598 1.549.395A1.99 1.99 0 0 1 540 111c0 1.103-.897 2-2 2" style="fill:#00a4ff"/><g style="opacity:.6"><path d="M680 367h133v50H680z" style="fill:#bbb"/></g><path d="M678.5 365.5h132v49h-132z" style="fill:#fff"/><path d="M810 366v48H679v-48zm1-1H678v50h133z" style="fill:#e5e5e5"/><path d="M740.742 388.137H753.3v1.008h-6.72q-1.905 3.92-3.374 5.516a97 97 0 0 0 7.532-.713 51 51 0 0 0-1.681-2.771l.812-.504q1.904 2.854 2.981 5.053l-.896.631a35 35 0 0 0-.729-1.484q-4.046.519-9.296.867l-.266-1.021q.084-.027.238-.098 1.357-1.022 3.556-5.475h-4.718v-1.009zm1.344-3.907h9.968v.98h-9.968zm16.17 5.797-.28.77h2.912v.854a5.8 5.8 0 0 1-1.525 2.381q.993.42 1.89.924l-.546.812a20 20 0 0 0-2.128-1.092q-1.414.965-3.5 1.553l-.49-.867q1.75-.463 2.94-1.148l-1.946-.783q.588-.967.952-1.723h-1.638v-.91h2.058q.35-.978.322-.883zm-3.318-3.92h2.729v-2.674h.938v2.674h2.548v.881h-2.548v.154q1.148.574 2.323 1.289l-.518.783a26 26 0 0 0-1.806-1.344v1.82h-.938v-2.66q-.686 1.639-2.506 2.869l-.49-.811q1.624-.953 2.254-2.102h-1.987zm1.064-2.38q.546.856.896 1.723l-.784.363a13 13 0 0 0-.952-1.805zm3.934 7.98h-2.365q-.35.715-.756 1.33.84.294 1.582.588 1.048-.853 1.539-1.918m1.092-7.686a10 10 0 0 1-1.078 1.82l-.756-.406q.671-.951 1.036-1.807zm1.512 4.76a13 13 0 0 1-.826 1.723l-.63-.771q1.246-2.365 1.666-6.342l.98.168q-.098.869-.309 2.002h3.696v.967h-.91q-.084 3.498-1.246 5.992 1.106 1.847 2.59 2.842l-.574.854q-1.441-1.009-2.506-2.758a9.5 9.5 0 0 1-2.604 2.814l-.532-.855a8.15 8.15 0 0 0 2.59-2.926q-.825-1.652-1.385-3.71m.672-2.254q-.14.503-.196.742.519 2.378 1.372 4.186.812-2.127.896-4.928zm5.894 9.604-.21-.951q.601.068 1.063.068.532 0 .532-.615v-3.416q-.98.364-1.652.574l-.252-.98q.953-.223 1.904-.574v-3.164h-1.681v-.965h1.681v-2.646h.979v2.646h1.345v.965h-1.345v2.758q.672-.292 1.303-.629v.994q-.435.223-1.303.615v4.074q0 1.245-1.176 1.246zm5.376-6.188q-.252 3.584-1.639 6.314l-.784-.701q1.483-2.772 1.513-7.195v-4.383h7.378v3.402h-2.632v1.652h2.996v.91h-2.996v1.721h2.352v4.594h-.938v-.688h-3.794v.688H775v-4.594h2.338v-1.721zm2.856-2.562h-2.786l-.014 1.652h2.8zm2.632-2.465h-5.418v1.555h5.418zm-4.032 9.76h3.794v-2.115h-3.794zm13.538-11.369q.393.63.715 1.357h5.04v.98h-10.374v3.193q-.085 4.675-1.414 7.42l-.826-.742q1.161-2.408 1.204-6.678v-4.174h5.264a9 9 0 0 0-.728-1.16zm.056 2.955q-.126.392-.378 1.119h5.46v.883h-5.811a17.4 17.4 0 0 1-1.26 2.393h2.618v-1.693h1.008v1.693h3.122v.91h-3.122v1.568h4.187v.924h-4.187v2.213h-1.008v-2.213h-5.054v-.924h5.054v-1.568h-3.668l-.21-.867q.811-1.008 1.456-2.436h-2.114v-.883h2.478q.238-.659.463-1.344z" style="fill:#444"/><path d="M709.16 394.978a7 7 0 0 1 1.073-.861c.094-.388.22-.762.368-1.125-.2.003-.398.009-.6.009-5.523 0-10-1.343-10-3v-6.238c2.149 1.349 5.824 2.238 10 2.238s7.851-.89 10-2.238v4.493a8 8 0 0 1 2 .824V381c0-2.761-5.373-5-12-5s-12 2.239-12 5v18c0 2.51 4.445 4.582 10.231 4.94a7 7 0 0 1-.955-2.055c-4.198-.357-7.277-1.512-7.277-2.885v-6.239c2.003 1.257 5.336 2.105 9.16 2.217M710 378c5.523 0 10 1.343 10 3s-4.477 3-10 3-10-1.343-10-3 4.477-3 10-3m12.986 18.137c.001-.047.014-.09.014-.137a5 5 0 1 0-10 0c0 .047.012.091.014.137A3.99 3.99 0 0 0 710 400a4 4 0 0 0 4 4h8a4 4 0 0 0 4-4 3.99 3.99 0 0 0-3.014-3.863M722 402h-8c-1.103 0-2-.897-2-2 0-.907.62-1.698 1.508-1.925l1.549-.395-.044-1.598a3 3 0 0 0-.012-.174A3.004 3.004 0 0 1 718 393a3.004 3.004 0 0 1 2.999 2.907q-.009.087-.012.175l-.044 1.598 1.549.395A1.99 1.99 0 0 1 724 400c0 1.103-.897 2-2 2" style="fill:#00a4ff"/><path d="M325 102.5h-19" style="fill-rule:evenodd;clip-rule:evenodd;fill:none;stroke:#878787;stroke-miterlimit:10"/><path d="m323 107 5-4.5-5-4.5z" style="fill-rule:evenodd;clip-rule:evenodd;fill:#878787"/><path d="M486 102.5h-18" style="fill-rule:evenodd;clip-rule:evenodd;fill:none;stroke:#878787;stroke-miterlimit:10"/><path d="m484 107 5-4.5-5-4.5z" style="fill-rule:evenodd;clip-rule:evenodd;fill:#878787"/><path d="M160 149h481v98H160z" style="fill:#cee3ff"/><path d="M191.629 164.846h3.024v6.272q.91-.715 1.75-1.484l.266 1.064a20.5 20.5 0 0 1-2.926 2.198l-.378-.896q.322-.28.322-.602v-5.587h-2.058zm1.652-4.158q1.441 1.105 2.38 2.155l-.686.7q-.868-1.021-2.408-2.17zm3.094.672h8.106v.979h-2.94v9.646q0 1.315-1.316 1.315h-1.834l-.21-.979q.98.069 1.694.069.63 0 .63-.657v-9.395h-4.13zm10.948 1.386h2.674q-.644-1.036-1.316-1.806l.882-.421q.657.798 1.33 1.891l-.644.336h2.898a14 14 0 0 0 1.106-2.282l.966.351a11.7 11.7 0 0 1-1.05 1.932h2.52v5.824h-4.172v1.273h5.712v.966h-5.712v2.633h-1.022v-2.633h-5.726v-.966h5.726v-1.273h-4.172zm.994 2.478h3.178v-1.554h-3.178zm3.178 2.45v-1.567h-3.178v1.567zm1.022-4.004v1.554h3.164v-1.554zm3.164 4.004v-1.567h-3.164v1.567zm6.062-5.222a10 10 0 0 1-1.12 1.512l-.882-.56a8.3 8.3 0 0 0 1.848-2.912l.966.21-.35.868h3.752v.882h-2.352q.504.673.77 1.204l-.924.35a11 11 0 0 0-.91-1.554zm10.192 1.946v2.533h-.98v-1.666h-9.912v1.666h-.98v-2.533h5.544a9 9 0 0 0-.434-.91l.98-.168-.084-.057a8.2 8.2 0 0 0 1.456-2.758l.966.21q-.168.504-.308.854h4.046v.882h-2.492q.462.616.7 1.092l-.896.336a9.4 9.4 0 0 0-.882-1.428h-.882q-.336.644-.854 1.344l-.756-.462q.266.56.448 1.064zm-1.932 1.694v2.744h-6.986v.966h7.63v3.599h-.994v-.589h-6.636v.574h-1.008v-7.294zm-6.986 1.932h6.006v-1.12h-6.006zm0 3.892h6.636v-1.302h-6.636zm10.892-6.174h1.498v-3.304h-1.694v-.952h4.41v.952h-1.68v3.304h1.526v.979h-1.526v3.137q.84-.294 1.68-.673v.967q-1.919.84-4.34 1.456l-.252-.967a34 34 0 0 0 1.876-.447v-3.473h-1.498zm5.04-4.634h6.734v6.481h-2.856v1.708h3.08v.938h-3.08v1.777h3.528v.967h-8.064v-.967h3.528v-1.777h-3.108v-.938h3.108v-1.708h-2.87zm.966 2.814h1.904v-1.918h-1.904zm1.904 2.772v-1.904h-1.904v1.904zm1.008-4.69v1.918h1.89v-1.918zm1.89 4.69v-1.904h-1.89v1.904zM178.499 159a1.495 1.495 0 0 0-.5 2.908V164h1v-2.092a1.496 1.496 0 0 0-.5-2.908" style="fill:#00a4ff"/><circle cx="178.499" cy="172.5" r="1.5" style="fill:#00a4ff"/><path d="M174.25 162.201a1.5 1.5 0 0 0-1.5 2.598q.122.069.25.112V167h1v-2.093q.21-.072.392-.202l1.693.978.5-.866-1.638-.946a1.496 1.496 0 0 0-.697-1.67" style="fill:#00a4ff"/><circle cx="183.5" cy="169.5" r="1.5" style="fill:#00a4ff"/><path d="M179.989 166.357a1 1 0 0 0-.015-.102q-.008-.05-.019-.1l-.022-.083a2 2 0 0 0-.072-.193q-.02-.043-.043-.084l-.02-.045c-.01-.023-.02-.026-.029-.04q-.025-.04-.052-.079-.03-.042-.064-.082-.032-.04-.066-.077l-.06-.06-.077-.067q-.04-.034-.081-.064l-.079-.052-.04-.029c-.015-.008-.03-.012-.045-.02l-.084-.042q-.047-.02-.096-.038-.048-.019-.096-.033a1 1 0 0 0-.183-.041l-.102-.015q-.047-.004-.094-.005c-.017 0-.032-.005-.049-.005s-.032.004-.049.005l-.094.005a1 1 0 0 0-.102.015q-.05.008-.1.019l-.083.022a2 2 0 0 0-.192.071q-.043.02-.084.042c-.015.008-.031.012-.045.02l-.04.029q-.04.024-.079.052-.041.03-.081.064a1.3 1.3 0 0 0-.203.204q-.034.04-.064.082l-.052.079-.029.04c-.015.02-.012.03-.02.045q-.023.042-.043.084l-.039.097q-.019.047-.033.096a1 1 0 0 0-.041.183l-.015.102q-.004.047-.005.094l-.005.049c-.002.024.004.032.005.049q.001.047.005.094.005.051.015.102.008.05.019.1l.022.083a2 2 0 0 0 .072.193q.02.043.043.084c.008.015.012.03.02.045l.029.04q.024.04.052.079.03.042.064.082.032.04.066.077a2 2 0 0 0 .138.127q.04.034.081.064l.079.052.04.029c.015.008.03.012.045.02q.041.023.084.043.048.021.097.039l.024.011V170h1v-2.088l.024-.011q.05-.017.097-.039.043-.02.084-.043c.015-.008.03-.012.045-.02l.04-.029q.041-.024.079-.052.042-.03.081-.064.04-.032.077-.066a2 2 0 0 0 .127-.138q.034-.04.064-.082l.052-.079.029-.04c.008-.015.012-.03.02-.045q.023-.041.043-.084.02-.047.039-.097.019-.047.033-.096.013-.041.022-.083.012-.05.019-.1l.015-.102q.004-.047.005-.094l.005-.049c.002-.024-.004-.032-.005-.049-.005-.031-.005-.062-.009-.093" style="fill:#00a4ff"/><circle cx="173.5" cy="169.5" r="1.5" style="fill:#00a4ff"/><path d="M182.999 164.907V167h1v-2.089q.128-.044.25-.112a1.5 1.5 0 0 0-1.5-2.598 1.496 1.496 0 0 0-.697 1.671l-1.638.946.5.866 1.694-.978q.182.129.391.201" style="fill:#00a4ff"/><g style="opacity:.6"><path d="M173 187h133v50H173z" style="fill:#bbb"/></g><path d="M171.5 185.5h132v49h-132z" style="fill:#fff"/><path d="M303 186v48H172v-48zm1-1H171v50h133z" style="fill:#e5e5e5"/><path d="M236.933 204.861h1.33l3.935 9.996h-1.246l-1.064-2.801h-4.592l-1.063 2.801H233zm-1.273 6.231h3.864l-1.891-4.998h-.056zm7.546-6.231h4.088q3.444 0 3.444 2.939 0 2.969-3.458 2.969h-2.926v4.088h-1.148zm1.148.994v3.92h2.87q1.19 0 1.792-.49.573-.49.573-1.484 0-1.022-.588-1.455-.575-.491-1.777-.49zm7.923-.994h1.134v9.996h-1.134zm12.152 11.313-.266-.98 1.344.041q.589 0 .588-.574v-9.701h-9.184v11.27h-.994v-12.236h11.172v10.893q0 1.289-1.246 1.289h-1.414zm-3.332-3.096a69 69 0 0 0-1.33-2.016q-.74 2.044-1.834 3.529l-.644-.785q1.092-1.554 1.806-3.682a44 44 0 0 0-1.974-2.449l.63-.604q.84.883 1.666 1.988a29 29 0 0 0 .658-3.164l.924.168a29 29 0 0 1-.882 3.949q.924 1.26 1.651 2.393zm4.103.645a79 79 0 0 0-1.414-2.324q-.84 2.06-1.975 3.529l-.644-.771q1.19-1.608 1.96-3.738a37 37 0 0 0-1.918-2.604l.63-.602a24 24 0 0 1 1.652 2.113q.433-1.457.742-3.387l.951.168q-.378 2.323-1.008 4.213a76 76 0 0 1 1.708 2.73zm13.874-10.108a12 12 0 0 1-1.261 2.715h2.885v.98h-4.677v.658q-.041 1.163-.195 1.945h5.684v.98h-5.096q1.035 2.842 5.432 4.41l-.588.938q-4.605-1.861-5.74-5.066-.406 1.217-1.063 2.1-1.443 1.86-4.662 2.883l-.546-.881q3.22-1.036 4.479-2.717a6.4 6.4 0 0 0 .798-1.666h-5.025v-.98h5.278q.195-.923.21-1.945v-.658h-4.69v-.98h6.398q.77-1.175 1.413-2.98zm-6.231-.14q.868 1.133 1.596 2.381l-.909.461a16.5 16.5 0 0 0-1.61-2.393z" style="fill:#444"/><path d="M206.2 224c-7.2 0-13-5.8-13-13s5.8-13 13-13c6.5 0 11.9 4.8 12.8 11h2c-1-7.3-7.2-13-14.9-13-8.3 0-15 6.7-15 15s6.7 15 15 15c7.6 0 13.9-5.7 14.9-13h-2c-.9 6.2-6.3 11-12.8 11" style="fill:#00a4ff"/><path d="M198.2 206h16v2h-16zm0 11h16v2h-16z" style="fill:#00a4ff"/><path d="M198.2 206h2v3h-2zm0 10h2v3h-2zm14 0h2v3h-2zm0-10h2v3h-2zm-11-4h2v4h-2zm8 0h2v4h-2zm-10 8h2v5h-2zm3 0h2v5h-2z" style="fill:#00a4ff"/><path d="M200.2 210h3v1h-3zm0 2h3v1h-3zm6-2h4v1h-4zm-1 2h4v1h-4z" style="fill:#00a4ff"/><path d="M205.2 210h2v5h-2zm3 0h2v3h-2zm3 0h2v5h-2z" style="fill:#00a4ff"/><g style="opacity:.6"><path d="M335 187h133v50H335z" style="fill:#bbb"/></g><path d="M333.5 185.5h132v49h-132z" style="fill:#fff"/><path d="M465 186v48H334v-48zm1-1H333v50h133z" style="fill:#e5e5e5"/><path d="M395.742 208.137H408.3v1.008h-6.72q-1.905 3.92-3.374 5.516a97 97 0 0 0 7.532-.713 51 51 0 0 0-1.681-2.771l.812-.504q1.904 2.854 2.981 5.053l-.896.631a35 35 0 0 0-.729-1.484q-4.046.519-9.296.867l-.266-1.021q.084-.027.238-.098 1.357-1.022 3.556-5.475h-4.718v-1.009zm1.343-3.907h9.968v.98h-9.968zm23.577 2.268h.966v9.787h-.966v-.785h-9.324v.771h-.966v-9.787h.966v8.092h9.324zm-9.059 5.67q2.143-1.245 4.145-3.148v-2.395q2.086-1.037 3.164-1.723h-7.154v-.951h8.666v.951a44 44 0 0 1-3.738 2.283v2.141a47 47 0 0 1 3.696 2.871l-.588.881q-1.791-1.734-3.108-2.744v2.354q0 1.23-1.147 1.23h-1.274l-.252-.938q.7.03 1.162.029.574 0 .574-.672v-2.172a25.6 25.6 0 0 1-3.794 2.982zm1.246-5.234q1.316 1.217 1.975 2.043l-.771.533q-.657-.897-1.945-2.115zm7.183.293a10.2 10.2 0 0 1-1.988 2.338l-.728-.518a9.5 9.5 0 0 0 1.903-2.213zm7.223 2.8-.28.77h2.912v.854a5.8 5.8 0 0 1-1.525 2.381q.993.42 1.89.924l-.546.812a20 20 0 0 0-2.128-1.092q-1.414.966-3.5 1.553l-.49-.867q1.75-.463 2.94-1.148l-1.946-.783q.588-.967.952-1.723h-1.638v-.91h2.058q.35-.978.322-.883zm-3.317-3.92h2.729v-2.674h.938v2.674h2.548v.881h-2.548v.154q1.148.574 2.323 1.289l-.518.783a26 26 0 0 0-1.806-1.344v1.82h-.938v-2.66q-.686 1.639-2.506 2.869l-.49-.811q1.624-.953 2.254-2.102h-1.987zm1.063-2.38q.546.855.896 1.723l-.784.363a13 13 0 0 0-.952-1.805zm3.934 7.98h-2.365q-.35.715-.756 1.33.84.294 1.582.588 1.05-.853 1.539-1.918m1.093-7.686a10 10 0 0 1-1.078 1.82l-.756-.406q.671-.951 1.036-1.807zm1.512 4.76a13 13 0 0 1-.826 1.723l-.63-.771q1.246-2.365 1.666-6.342l.98.168q-.098.869-.309 2.002h3.696v.967h-.91q-.085 3.499-1.246 5.992 1.106 1.847 2.59 2.842l-.574.854q-1.441-1.009-2.506-2.758a9.5 9.5 0 0 1-2.604 2.814l-.532-.855a8.15 8.15 0 0 0 2.59-2.926q-.825-1.652-1.385-3.71m.671-2.254q-.14.503-.196.742.519 2.378 1.372 4.186.812-2.127.896-4.928z" style="fill:#444"/><path d="M368.07 224c-7.213 0-13.061-5.82-13.061-13s5.848-13 13.061-13c6.528 0 11.922 4.772 12.89 11h2.03c-.985-7.336-7.281-13-14.921-13-8.323 0-15.07 6.716-15.07 15s6.747 15 15.07 15c7.64 0 13.936-5.664 14.921-13h-2.03c-.968 6.228-6.362 11-12.89 11" style="fill:#00a4ff"/><path d="m360.991 213 5 3v2l-5-3zm0-4 5-3v-2l-5 3z" style="fill:#00a4ff"/><path d="M360.991 207h2v8h-2zm12 0h2v8h-2z" style="fill:#00a4ff"/><path d="m374.991 215-5 3v-2l5-3zm0-8-5-3v2l5 3zm-7 7h-2l2-6h2z" style="fill:#00a4ff"/><g style="opacity:.6"><path d="M496 187h133v50H496z" style="fill:#bbb"/></g><path d="M494.5 185.5h132v49h-132z" style="fill:#fff"/><path d="M626 186v48H495v-48zm1-1H494v50h133z" style="fill:#e5e5e5"/><path d="M556.742 208.137H569.3v1.008h-6.72q-1.905 3.92-3.374 5.516a97 97 0 0 0 7.532-.713 51 51 0 0 0-1.681-2.771l.812-.504q1.904 2.854 2.981 5.053l-.896.631a35 35 0 0 0-.729-1.484q-4.046.519-9.296.867l-.266-1.021q.084-.027.238-.098 1.357-1.022 3.556-5.475h-4.718v-1.009zm1.344-3.907h9.968v.98h-9.968zm16.17 5.797-.28.77h2.912v.854a5.8 5.8 0 0 1-1.525 2.381q.993.42 1.89.924l-.546.812a20 20 0 0 0-2.128-1.092q-1.414.966-3.5 1.553l-.49-.867q1.75-.463 2.94-1.148l-1.946-.783q.588-.967.952-1.723h-1.638v-.91h2.058q.35-.978.322-.883zm-3.318-3.92h2.729v-2.674h.938v2.674h2.548v.881h-2.548v.154q1.148.574 2.323 1.289l-.518.783a26 26 0 0 0-1.806-1.344v1.82h-.938v-2.66q-.686 1.639-2.506 2.869l-.49-.811q1.624-.953 2.254-2.102h-1.987zm1.064-2.38q.546.855.896 1.723l-.784.363a13 13 0 0 0-.952-1.805zm3.934 7.98h-2.365q-.35.715-.756 1.33.84.294 1.582.588 1.048-.853 1.539-1.918m1.092-7.686a10 10 0 0 1-1.078 1.82l-.756-.406q.671-.951 1.036-1.807zm1.512 4.76a13 13 0 0 1-.826 1.723l-.63-.771q1.246-2.365 1.666-6.342l.98.168q-.098.869-.309 2.002h3.696v.967h-.91q-.085 3.499-1.246 5.992 1.106 1.847 2.59 2.842l-.574.854q-1.441-1.009-2.506-2.758a9.5 9.5 0 0 1-2.604 2.814l-.532-.855a8.15 8.15 0 0 0 2.59-2.926q-.825-1.652-1.385-3.71m.672-2.254q-.14.503-.196.742.519 2.378 1.372 4.186.812-2.127.896-4.928zm5.894 9.604-.21-.951q.601.068 1.063.068.532 0 .532-.615v-3.416q-.98.363-1.652.574l-.252-.98q.953-.222 1.904-.574v-3.164h-1.681v-.965h1.681v-2.646h.979v2.646h1.345v.965h-1.345v2.758q.672-.292 1.303-.629v.994q-.435.223-1.303.615v4.074q0 1.245-1.176 1.246zm5.376-6.188q-.252 3.584-1.639 6.314l-.784-.701q1.483-2.772 1.513-7.195v-4.383h7.378v3.402h-2.632v1.652h2.996v.91h-2.996v1.721h2.352v4.594h-.938v-.688h-3.794v.688H591v-4.594h2.338v-1.721h-2.856zm2.856-2.562h-2.786l-.014 1.652h2.8zm2.632-2.465h-5.418v1.555h5.418zm-4.032 9.76h3.794v-2.115h-3.794zm13.538-11.369q.393.63.715 1.357h5.04v.98h-10.374v3.193q-.085 4.675-1.414 7.42l-.826-.742q1.161-2.408 1.204-6.678v-4.174h5.264a9 9 0 0 0-.728-1.16zm.056 2.955q-.126.392-.378 1.119h5.46v.883h-5.811a17.4 17.4 0 0 1-1.26 2.393h2.618v-1.693h1.008v1.693h3.122v.91h-3.122v1.568h4.187v.924h-4.187v2.213h-1.008v-2.213h-5.054v-.924h5.054v-1.568h-3.668l-.21-.867q.811-1.008 1.456-2.436h-2.114v-.883h2.478q.238-.659.463-1.344z" style="fill:#444"/><path d="M526.6 212.991q-.298.007-.6.009c-5.523 0-10-1.343-10-3v-6.238c2.149 1.349 5.824 2.238 10 2.238s7.851-.89 10-2.238v4.493a8 8 0 0 1 2 .824V201c0-2.762-5.373-5-12-5s-12 2.239-12 5v18h2v-6.238c2.003 1.257 5.337 2.105 9.16 2.216a7 7 0 0 1 1.072-.861c.094-.388.221-.763.368-1.126M526 198c5.523 0 10 1.343 10 3s-4.477 3-10 3-10-1.343-10-3 4.477-3 10-3m-10 21h-2c0 2.51 4.444 4.582 10.231 4.94a7 7 0 0 1-.955-2.055c-4.197-.357-7.276-1.512-7.276-2.885m22.986-2.863c.001-.047.014-.09.014-.137a5 5 0 1 0-10 0c0 .047.012.091.014.137A3.99 3.99 0 0 0 526 220a4 4 0 0 0 4 4h8a4 4 0 0 0 4-4 3.99 3.99 0 0 0-3.014-3.863M538 222h-8c-1.103 0-2-.897-2-2 0-.907.62-1.698 1.508-1.925l1.549-.395-.044-1.598a3 3 0 0 0-.012-.174 3.003 3.003 0 0 1 2.999-2.907 3.004 3.004 0 0 1 2.999 2.907q-.009.087-.012.175l-.044 1.598 1.549.395A1.99 1.99 0 0 1 540 220c0 1.103-.897 2-2 2" style="fill:#00a4ff"/><path d="M325 211.5h-19" style="fill-rule:evenodd;clip-rule:evenodd;fill:none;stroke:#878787;stroke-miterlimit:10"/><path d="m323 216 5-4.5-5-4.5z" style="fill-rule:evenodd;clip-rule:evenodd;fill:#878787"/><path d="M153 89h-13" style="fill-rule:evenodd;clip-rule:evenodd;fill:none;stroke:#878787;stroke-miterlimit:10"/><path d="m151 93.5 5-4.5-5-4.5z" style="fill-rule:evenodd;clip-rule:evenodd;fill:#878787"/><path d="M153 210.5h-26M140.002 342V89" style="fill-rule:evenodd;clip-rule:evenodd;fill:none;stroke:#878787;stroke-miterlimit:10"/><path d="m151 215 5-4.5-5-4.5z" style="fill-rule:evenodd;clip-rule:evenodd;fill:#878787"/><path d="M153 342h-13" style="fill-rule:evenodd;clip-rule:evenodd;fill:none;stroke:#878787;stroke-miterlimit:10"/><path d="m151 346.5 5-4.5-5-4.5z" style="fill-rule:evenodd;clip-rule:evenodd;fill:#878787"/><path d="M486 211.5h-18" style="fill-rule:evenodd;clip-rule:evenodd;fill:none;stroke:#878787;stroke-miterlimit:10"/><path d="m484 216 5-4.5-5-4.5z" style="fill-rule:evenodd;clip-rule:evenodd;fill:#878787"/><path d="M665 348.5h-22" style="fill-rule:evenodd;clip-rule:evenodd;fill:none;stroke:#878787;stroke-miterlimit:10"/><path d="m663 353 5-4.5-5-4.5zm-17-9-5 4.5 5 4.5z" style="fill-rule:evenodd;clip-rule:evenodd;fill:#878787"/><path d="M745 357v-10" style="fill-rule:evenodd;clip-rule:evenodd;fill:none;stroke:#878787;stroke-miterlimit:10"/><path d="m740.5 355 4.5 5 4.5-5z" style="fill-rule:evenodd;clip-rule:evenodd;fill:#878787"/><path d="M160 258h481v168H160z" style="fill:#cee3ff"/><path d="M198.083 269.422q.294.7.49 1.288h5.628v.98h-3.024a16 16 0 0 1-.812 1.693h3.108v7.477q0 1.47-1.232 1.47h-1.428l-.252-.924 1.358.042q.588 0 .588-.812v-6.355h-9.044v8.021h-.966v-8.918h2.954a12.6 12.6 0 0 0-.742-1.693h-2.912v-.98h5.698a15 15 0 0 0-.518-1.106zm-.826 5.74q-1.19 1.442-2.968 2.52l-.644-.84q1.722-.966 2.898-2.31zm-1.862 2.086h5.194v3.444h-5.194zm3.878-3.864q.448-.867.798-1.693h-4.242q.336.714.672 1.693zm.35 6.412v-1.638h-3.262v1.638zm-.266-5.278q1.75 1.233 2.898 2.408l-.756.742q-1.064-1.204-2.828-2.506zm11.844 1.596v6.076h-.98v-.715h-2.954v.715h-.994v-6.076zm-3.934 4.41h2.954v-3.444h-2.954zm.868-10.374h7.714v4.577h-7.714zm6.706 3.626v-2.675h-5.698v2.675zm2.87 2.338v6.076h-1.008v-.715h-3.066v.715h-.994v-6.076zm-4.074 4.41h3.066v-3.444h-3.066zm8.106-9.072a10 10 0 0 1-1.12 1.512l-.882-.56a8.3 8.3 0 0 0 1.848-2.912l.966.21-.35.868h3.752v.882h-2.352q.504.673.77 1.204l-.924.35a11 11 0 0 0-.91-1.554zm10.192 1.946v2.533h-.98v-1.666h-9.912v1.666h-.98v-2.533h5.544a9 9 0 0 0-.434-.91l.98-.168-.084-.057a8.2 8.2 0 0 0 1.456-2.758l.966.21q-.168.504-.308.854h4.046v.882h-2.492q.462.616.7 1.092l-.896.336a9.4 9.4 0 0 0-.882-1.428h-.882q-.336.644-.854 1.344l-.756-.462q.266.56.448 1.064zm-1.932 1.694v2.744h-6.986v.966h7.63v3.599h-.994v-.589h-6.636v.574h-1.008v-7.294zm-6.986 1.932h6.006v-1.12h-6.006zm0 3.892h6.636v-1.302h-6.636zm10.892-6.174h1.498v-3.304h-1.694v-.952h4.41v.952h-1.68v3.304h1.526v.979h-1.526v3.137q.84-.294 1.68-.673v.967q-1.919.84-4.34 1.456l-.252-.967a34 34 0 0 0 1.876-.447v-3.473h-1.498zm5.04-4.634h6.734v6.481h-2.856v1.708h3.08v.938h-3.08v1.777h3.528v.967h-8.064v-.967h3.528v-1.777h-3.108v-.938h3.108v-1.708h-2.87zm.966 2.814h1.904v-1.918h-1.904zm1.904 2.772v-1.904h-1.904v1.904zm1.008-4.69v1.918h1.89v-1.918zm1.89 4.69v-1.904h-1.89v1.904zM178.499 268a1.495 1.495 0 0 0-.5 2.908V273h1v-2.092a1.496 1.496 0 0 0-.5-2.908" style="fill:#00a4ff"/><circle cx="178.499" cy="281.5" r="1.5" style="fill:#00a4ff"/><path d="M174.25 271.201a1.5 1.5 0 0 0-1.5 2.598q.122.069.25.112V276h1v-2.093q.21-.072.392-.202l1.693.978.5-.866-1.638-.946a1.496 1.496 0 0 0-.697-1.67" style="fill:#00a4ff"/><circle cx="183.5" cy="278.5" r="1.5" style="fill:#00a4ff"/><path d="M179.989 275.357a1 1 0 0 0-.015-.102q-.008-.05-.019-.1l-.022-.083a2 2 0 0 0-.072-.193q-.02-.043-.043-.084l-.02-.045c-.01-.023-.02-.026-.029-.04q-.025-.04-.052-.079-.03-.042-.064-.082-.032-.04-.066-.077l-.06-.06-.077-.067q-.04-.033-.081-.064l-.079-.052-.04-.029c-.015-.008-.03-.012-.045-.02l-.084-.042q-.047-.02-.096-.038-.048-.019-.096-.033a1 1 0 0 0-.183-.041l-.102-.015q-.047-.004-.094-.005c-.017 0-.032-.005-.049-.005s-.032.004-.049.005l-.094.005a1 1 0 0 0-.102.015q-.05.008-.1.019l-.083.022a2 2 0 0 0-.192.071q-.043.02-.084.042c-.015.008-.031.012-.045.02l-.04.029q-.04.024-.079.052-.041.03-.081.064a1.3 1.3 0 0 0-.203.204q-.034.04-.064.082l-.052.079-.029.04c-.015.02-.012.03-.02.045q-.023.042-.043.084l-.039.097q-.019.047-.033.096a1 1 0 0 0-.041.183l-.015.102q-.004.047-.005.094l-.005.049c-.002.025.004.032.005.049q.001.047.005.094.005.051.015.102.008.05.019.1l.022.083a2 2 0 0 0 .072.193q.02.043.043.084c.008.015.012.03.02.045l.029.04q.024.04.052.079.03.042.064.082.032.04.066.077a2 2 0 0 0 .138.127q.04.034.081.064l.079.052.04.029c.015.008.03.012.045.02q.041.023.084.043.048.021.097.039l.024.011V279h1v-2.088l.024-.011q.05-.017.097-.039.043-.02.084-.043l.045-.02.04-.029q.041-.024.079-.052.042-.03.081-.064.04-.032.077-.066a2 2 0 0 0 .127-.138q.034-.04.064-.082l.052-.079.029-.04c.008-.015.012-.03.02-.045q.023-.041.043-.084.02-.047.039-.097.019-.047.033-.096.013-.041.022-.083.012-.05.019-.1l.015-.102q.004-.047.005-.094l.005-.049c.002-.025-.004-.032-.005-.049-.005-.031-.005-.062-.009-.093" style="fill:#00a4ff"/><circle cx="173.5" cy="278.5" r="1.5" style="fill:#00a4ff"/><path d="M182.999 273.907V276h1v-2.089q.128-.044.25-.112a1.5 1.5 0 0 0-1.5-2.598 1.496 1.496 0 0 0-.697 1.671l-1.638.946.5.866 1.694-.978q.182.129.391.201" style="fill:#00a4ff"/><g style="opacity:.6"><path d="M173 326h133v50H173z" style="fill:#bbb"/></g><path d="M171.5 324.5h132v49h-132z" style="fill:#fff"/><path d="M303 325v48H172v-48zm1-1H171v50h133z" style="fill:#e5e5e5"/><path d="M236.933 343.861h1.33l3.935 9.996h-1.246l-1.064-2.801h-4.592l-1.063 2.801H233zm-1.273 6.231h3.864l-1.891-4.998h-.056zm7.546-6.231h4.088q3.444 0 3.444 2.939 0 2.969-3.458 2.969h-2.926v4.088h-1.148zm1.148.994v3.92h2.87q1.19 0 1.792-.49.573-.49.573-1.484 0-1.022-.588-1.455-.575-.491-1.777-.49h-2.87zm7.923-.994h1.134v9.996h-1.134zm12.152 11.313-.266-.98 1.344.041q.589 0 .588-.574v-9.701h-9.184v11.27h-.994v-12.236h11.172v10.893q0 1.289-1.246 1.289h-1.414zm-3.332-3.096a69 69 0 0 0-1.33-2.016q-.74 2.044-1.834 3.529l-.644-.785q1.092-1.554 1.806-3.682a44 44 0 0 0-1.974-2.449l.63-.604q.84.883 1.666 1.988a29 29 0 0 0 .658-3.164l.924.168a29 29 0 0 1-.882 3.949q.924 1.26 1.651 2.393zm4.103.645a79 79 0 0 0-1.414-2.324q-.84 2.06-1.975 3.529l-.644-.771q1.19-1.608 1.96-3.738a37 37 0 0 0-1.918-2.604l.63-.602a24 24 0 0 1 1.652 2.113q.433-1.457.742-3.387l.951.168q-.378 2.323-1.008 4.213a76 76 0 0 1 1.708 2.73zm13.874-10.108a12 12 0 0 1-1.261 2.715h2.885v.98h-4.677v.658q-.041 1.163-.195 1.945h5.684v.98h-5.096q1.035 2.842 5.432 4.41l-.588.938q-4.605-1.861-5.74-5.066-.406 1.217-1.063 2.1-1.443 1.86-4.662 2.883l-.546-.881q3.22-1.036 4.479-2.717a6.4 6.4 0 0 0 .798-1.666h-5.025v-.98h5.278q.195-.923.21-1.945v-.658h-4.69v-.98h6.398q.77-1.175 1.413-2.98zm-6.231-.14q.868 1.134 1.596 2.381l-.909.461a16.5 16.5 0 0 0-1.61-2.393z" style="fill:#444"/><path d="M206.2 363c-7.2 0-13-5.8-13-13s5.8-13 13-13c6.5 0 11.9 4.8 12.8 11h2c-1-7.3-7.2-13-14.9-13-8.3 0-15 6.7-15 15s6.7 15 15 15c7.6 0 13.9-5.7 14.9-13h-2c-.9 6.2-6.3 11-12.8 11" style="fill:#00a4ff"/><path d="M198.2 345h16v2h-16zm0 11h16v2h-16z" style="fill:#00a4ff"/><path d="M198.2 345h2v3h-2zm0 10h2v3h-2zm14 0h2v3h-2zm0-10h2v3h-2zm-11-4h2v4h-2zm8 0h2v4h-2zm-10 8h2v5h-2zm3 0h2v5h-2z" style="fill:#00a4ff"/><path d="M200.2 349h3v1h-3zm0 2h3v1h-3zm6-2h4v1h-4zm-1 2h4v1h-4z" style="fill:#00a4ff"/><path d="M205.2 349h2v5h-2zm3 0h2v3h-2zm3 0h2v5h-2z" style="fill:#00a4ff"/><g style="opacity:.6"><path d="M335 326h133v50H335z" style="fill:#bbb"/></g><path d="M333.5 324.5h132v49h-132z" style="fill:#fff"/><path d="M465 325v48H334v-48zm1-1H333v50h133z" style="fill:#e5e5e5"/><path d="M395.742 347.137H408.3v1.008h-6.72q-1.905 3.92-3.374 5.516a97 97 0 0 0 7.532-.713 51 51 0 0 0-1.681-2.771l.812-.504q1.904 2.854 2.981 5.053l-.896.631a35 35 0 0 0-.729-1.484q-4.046.519-9.296.867l-.266-1.021q.084-.027.238-.098 1.357-1.022 3.556-5.475h-4.718v-1.009zm1.343-3.907h9.968v.98h-9.968zm23.577 2.268h.966v9.787h-.966v-.785h-9.324v.771h-.966v-9.787h.966v8.092h9.324zm-9.059 5.67q2.143-1.245 4.145-3.148v-2.395q2.086-1.037 3.164-1.723h-7.154v-.951h8.666v.951a44 44 0 0 1-3.738 2.283v2.141a47 47 0 0 1 3.696 2.871l-.588.881q-1.791-1.734-3.108-2.744v2.354q0 1.23-1.147 1.23h-1.274l-.252-.938q.7.03 1.162.029.574 0 .574-.672v-2.172a25.6 25.6 0 0 1-3.794 2.982zm1.246-5.234q1.316 1.217 1.975 2.043l-.771.533q-.657-.897-1.945-2.115zm7.183.293a10.2 10.2 0 0 1-1.988 2.338l-.728-.518a9.5 9.5 0 0 0 1.903-2.213zm7.223 2.8-.28.77h2.912v.854a5.8 5.8 0 0 1-1.525 2.381q.993.42 1.89.924l-.546.812a20 20 0 0 0-2.128-1.092q-1.414.965-3.5 1.553l-.49-.867q1.75-.463 2.94-1.148l-1.946-.783q.588-.967.952-1.723h-1.638v-.91h2.058q.35-.978.322-.883zm-3.317-3.92h2.729v-2.674h.938v2.674h2.548v.881h-2.548v.154q1.148.574 2.323 1.289l-.518.783a26 26 0 0 0-1.806-1.344v1.82h-.938v-2.66q-.686 1.639-2.506 2.869l-.49-.811q1.624-.953 2.254-2.102h-1.987zm1.063-2.38q.546.856.896 1.723l-.784.363a13 13 0 0 0-.952-1.805zm3.934 7.98h-2.365q-.35.715-.756 1.33.84.294 1.582.588 1.05-.853 1.539-1.918m1.093-7.686a10 10 0 0 1-1.078 1.82l-.756-.406q.671-.951 1.036-1.807zm1.512 4.76a13 13 0 0 1-.826 1.723l-.63-.771q1.246-2.365 1.666-6.342l.98.168q-.098.869-.309 2.002h3.696v.967h-.91q-.085 3.498-1.246 5.992 1.106 1.847 2.59 2.842l-.574.854q-1.441-1.009-2.506-2.758a9.5 9.5 0 0 1-2.604 2.814l-.532-.855a8.15 8.15 0 0 0 2.59-2.926q-.825-1.652-1.385-3.71m.671-2.254q-.14.503-.196.742.519 2.378 1.372 4.186.812-2.127.896-4.928z" style="fill:#444"/><path d="M368.07 363c-7.213 0-13.061-5.82-13.061-13s5.848-13 13.061-13c6.528 0 11.922 4.772 12.89 11h2.03c-.985-7.336-7.281-13-14.921-13-8.323 0-15.07 6.716-15.07 15s6.747 15 15.07 15c7.64 0 13.936-5.664 14.921-13h-2.03c-.968 6.228-6.362 11-12.89 11" style="fill:#00a4ff"/><path d="m360.991 352 5 3v2l-5-3zm0-4 5-3v-2l-5 3z" style="fill:#00a4ff"/><path d="M360.991 346h2v8h-2zm12 0h2v8h-2z" style="fill:#00a4ff"/><path d="m374.991 354-5 3v-2l5-3zm0-8-5-3v2l5 3zm-7 7h-2l2-6h2z" style="fill:#00a4ff"/><g style="opacity:.6"><path d="M496 296h133v50H496z" style="fill:#bbb"/></g><path d="M494.5 294.5h132v49h-132z" style="fill:#fff"/><path d="M626 295v48H495v-48zm1-1H494v50h133z" style="fill:#e5e5e5"/><path d="M556.742 317.137H569.3v1.008h-6.72q-1.905 3.92-3.374 5.516a97 97 0 0 0 7.532-.713 51 51 0 0 0-1.681-2.771l.812-.504q1.904 2.854 2.981 5.053l-.896.631a35 35 0 0 0-.729-1.484q-4.046.519-9.296.867l-.266-1.021q.084-.027.238-.098 1.357-1.022 3.556-5.475h-4.718v-1.009zm1.344-3.907h9.968v.98h-9.968zm16.17 5.797-.28.77h2.912v.854a5.8 5.8 0 0 1-1.525 2.381q.993.42 1.89.924l-.546.812a20 20 0 0 0-2.128-1.092q-1.414.965-3.5 1.553l-.49-.867q1.75-.463 2.94-1.148l-1.946-.783q.588-.967.952-1.723h-1.638v-.91h2.058q.35-.978.322-.883zm-3.318-3.92h2.729v-2.674h.938v2.674h2.548v.881h-2.548v.154q1.148.574 2.323 1.289l-.518.783a26 26 0 0 0-1.806-1.344v1.82h-.938v-2.66q-.686 1.638-2.506 2.869l-.49-.811q1.624-.953 2.254-2.102h-1.987zm1.064-2.38q.546.856.896 1.723l-.784.363a13 13 0 0 0-.952-1.805zm3.934 7.98h-2.365q-.35.715-.756 1.33.84.294 1.582.588 1.048-.853 1.539-1.918m1.092-7.686a10 10 0 0 1-1.078 1.82l-.756-.406q.671-.951 1.036-1.807zm1.512 4.76a13 13 0 0 1-.826 1.723l-.63-.771q1.246-2.365 1.666-6.342l.98.168q-.098.869-.309 2.002h3.696v.967h-.91q-.085 3.499-1.246 5.992 1.106 1.847 2.59 2.842l-.574.854q-1.441-1.009-2.506-2.758a9.5 9.5 0 0 1-2.604 2.814l-.532-.855a8.15 8.15 0 0 0 2.59-2.926q-.825-1.652-1.385-3.71m.672-2.254q-.14.503-.196.742.519 2.378 1.372 4.186.812-2.127.896-4.928zm5.894 9.604-.21-.951q.601.068 1.063.068.532 0 .532-.615v-3.416q-.98.363-1.652.574l-.252-.98q.953-.222 1.904-.574v-3.164h-1.681v-.965h1.681v-2.646h.979v2.646h1.345v.965h-1.345v2.758q.672-.292 1.303-.629v.994q-.435.223-1.303.615v4.074q0 1.245-1.176 1.246zm5.376-6.188q-.252 3.584-1.639 6.314l-.784-.701q1.483-2.772 1.513-7.195v-4.383h7.378v3.402h-2.632v1.652h2.996v.91h-2.996v1.721h2.352v4.594h-.938v-.688h-3.794v.688H591v-4.594h2.338v-1.721zm2.856-2.562h-2.786l-.014 1.652h2.8zm2.632-2.465h-5.418v1.555h5.418zm-4.032 9.76h3.794v-2.115h-3.794zm13.538-11.369q.393.63.715 1.357h5.04v.98h-10.374v3.193q-.085 4.675-1.414 7.42l-.826-.742q1.161-2.408 1.204-6.678v-4.174h5.264a9 9 0 0 0-.728-1.16zm.056 2.955q-.126.392-.378 1.119h5.46v.883h-5.811a17.4 17.4 0 0 1-1.26 2.393h2.618v-1.693h1.008v1.693h3.122v.91h-3.122v1.568h4.187v.924h-4.187v2.213h-1.008v-2.213h-5.054v-.924h5.054v-1.568h-3.668l-.21-.867q.811-1.008 1.456-2.436h-2.114v-.883h2.478q.238-.659.463-1.344z" style="fill:#444"/><path d="M525.16 323.978a7 7 0 0 1 1.072-.861c.094-.388.22-.762.368-1.125-.2.003-.398.009-.6.009-5.523 0-10-1.343-10-3v-6.238c2.149 1.348 5.824 2.238 10 2.238s7.851-.89 10-2.238v4.493a8 8 0 0 1 2 .824V310c0-2.761-5.373-5-12-5s-12 2.239-12 5v18c0 2.51 4.444 4.582 10.231 4.94a7 7 0 0 1-.955-2.055c-4.197-.357-7.276-1.512-7.276-2.885v-6.238c2.003 1.256 5.337 2.104 9.16 2.216M526 307c5.523 0 10 1.343 10 3s-4.477 3-10 3-10-1.343-10-3 4.477-3 10-3m12.986 18.137c.001-.047.014-.09.014-.137a5 5 0 1 0-10 0c0 .047.012.091.014.137A3.99 3.99 0 0 0 526 329a4 4 0 0 0 4 4h8a4 4 0 0 0 4-4 3.99 3.99 0 0 0-3.014-3.863M538 331h-8c-1.103 0-2-.897-2-2 0-.907.62-1.698 1.508-1.925l1.549-.395-.044-1.598a3 3 0 0 0-.012-.174 3.003 3.003 0 0 1 2.999-2.907 3.004 3.004 0 0 1 2.999 2.907q-.009.087-.012.175l-.044 1.598 1.549.395A1.99 1.99 0 0 1 540 329c0 1.103-.897 2-2 2" style="fill:#00a4ff"/><g style="opacity:.6"><path d="M496 357h133v50H496z" style="fill:#bbb"/></g><path d="M494.5 355.5h132v49h-132z" style="fill:#fff"/><path d="M626 356v48H495v-48zm1-1H494v50h133z" style="fill:#e5e5e5"/><path d="M557.666 377.045q1.19 1.288 2.45 2.869.783-1.89.924-4.115h-3.836v-.98h4.746v.742q-.113 2.885-1.19 5.195.868 1.16 1.624 2.365l-.728.729a32 32 0 0 0-1.387-2.115q-1.147 2.003-3.094 3.613l-.588-.883q1.974-1.511 3.066-3.57a45 45 0 0 0-2.66-3.219zm5.768 1.709q1.428 1.75 2.17 3.064l-.798.561q-.84-1.456-2.142-3.066zm-.756-2.619h4.061v-2.744h1.008v2.744h1.554v.967h-1.554v7.699q0 1.414-1.442 1.414h-2.197l-.21-.994q1.217.07 2.058.07.784 0 .784-.742v-7.447h-4.061zm9.632.531q-.433.24-.951.463l-.631-.77q2.814-1.162 4.578-3.025l1.051.238q-.476.504-.729.756h4.452V375q-.645.673-1.344 1.191h3.653v3.121h-5.613q1.175.966 1.75 2.031 2.086-.659 3.458-1.639l.657.756q-1.008.671-2.226 1.176.881 1.807 3.08 3.191l-.672.84q-2.31-1.693-3.263-3.709l-.657.209q.238.674.279 1.498 0 1.428-.573 2.002-.546.477-1.849.604-.462.04-.994.041l-.308-.924 1.19-.014q.671-.042 1.105-.363.406-.336.406-1.346a3.4 3.4 0 0 0-.07-.672q-2.408 1.778-6.454 2.885l-.504-.867q4.368-1.134 6.706-2.912a5 5 0 0 0-.462-.869q-2.058 1.512-5.614 2.479l-.489-.854q3.654-.883 5.628-2.24a6.6 6.6 0 0 0-.799-.756q-1.638 1.231-4.493 1.721l-.393-.84q2.604-.42 4.074-1.428h-2.982v-2.646zm5.138-.475q.602-.393 1.357-1.064h-4.102q-.645.518-1.54 1.064zm-1.218 2.282q.545-.671.798-1.441h-3.725v1.441zm5.166 0v-1.441h-3.36a5.5 5.5 0 0 1-.63 1.441zm3.682-3.625h3.808q.308-.827.49-1.484l1.022.125q-.239.813-.435 1.359h7.168v.979h-7.546a16.4 16.4 0 0 1-1.918 3.318v7.127h-.979v-5.922a20 20 0 0 1-1.498 1.482l-.631-.797q2.548-2.24 3.921-5.209h-3.402zm3.682 6.509h4.061v-1.303a14 14 0 0 0 2.281-1.582h-5.264v-.938h6.552v.938a19.6 19.6 0 0 1-2.562 2.002v.883h3.5v.965h-3.5v2.646q0 1.245-1.246 1.246h-1.75l-.266-.951q1.008.027 1.609.027.645 0 .645-.645v-2.324h-4.061zm11.116-2.898a17 17 0 0 1-1.05 1.555l-.336-1.078q1.665-2.422 2.394-5.518l.91.422a21 21 0 0 1-.938 2.715v9.717h-.98zm1.54-.686h2.534v5.936q.462-.489 1.147-1.303l.238.994a18.5 18.5 0 0 1-2.24 2.367l-.405-.924q.293-.253.294-.547v-5.586h-1.568zm1.33-3.794q1.26 1.078 2.058 2.086l-.742.742q-.756-1.034-2.002-2.156zm2.772 1.078h1.681v-1.609h.91v1.609h1.582v.826q.42-.841.798-1.723l.84.436a17 17 0 0 1-1.652 3.148h1.61v.924h-2.296q-.616.744-1.246 1.316h2.855v6.244h-.951v-.588h-2.618v.588h-.938v-5.012q-.336.197-1.008.531l-.504-.797a10.1 10.1 0 0 0 3.178-2.283h-2.548v-.924h1.988v-1.805h-1.681zm4.13 7.322v-1.512h-2.618v1.512zm-2.618.84v1.541h2.618v-1.541zm1.498-5.475q.615-.84 1.134-1.805h-1.554v1.805z" style="fill:#444"/><path d="M523 377v8l7 4 7-4v-8l-7-4zm6 9.125-4-2.286v-3.697l4 2.286zm6-2.286-4 2.286v-3.696l4-2.286zm-5-3.142L525.281 378l4.719-2.697 4.719 2.697zm12 7.142-12 6.857-12-6.857V374.16l12-6.857 12 6.857v-.018l2-1.142-14-8-14 8v16l14 8 14-8v-12l-2 1.142z" style="fill:#00a4ff"/><path d="M325 350.5h-19" style="fill-rule:evenodd;clip-rule:evenodd;fill:none;stroke:#878787;stroke-miterlimit:10"/><path d="m323 355 5-4.5-5-4.5z" style="fill-rule:evenodd;clip-rule:evenodd;fill:#878787"/><path d="M486 320.5h-8" style="fill-rule:evenodd;clip-rule:evenodd;fill:none;stroke:#878787;stroke-miterlimit:10"/><path d="m484 325 5-4.5-5-4.5z" style="fill-rule:evenodd;clip-rule:evenodd;fill:#878787"/><path d="M486 380.5h-8m0-30.5h-10m10 31.001V320" style="fill-rule:evenodd;clip-rule:evenodd;fill:none;stroke:#878787;stroke-miterlimit:10"/><path d="m484 385 5-4.5-5-4.5z" style="fill-rule:evenodd;clip-rule:evenodd;fill:#878787"/></svg>